<svg width="439" height="291" viewBox="0 0 439 291" fill="none" xmlns="http://www.w3.org/2000/svg">
<g clip-path="url(#clip0_22_2270)">
<path d="M222.394 81.7885C218.479 75.3257 213.841 68.4255 206.577 66.3152C198.165 63.8714 189.523 68.7261 182.194 73.5167C160.273 87.8439 139.163 103.371 118.96 120.025L118.982 120.276C134.711 119.194 150.439 118.111 166.168 117.028C177.532 116.246 189.286 115.355 199.329 109.989C203.14 107.953 206.854 105.232 211.173 105.043C216.538 104.807 221.216 108.548 224.892 112.456C246.638 135.572 252.931 170.923 277.328 191.233C261.944 153.359 243.575 116.763 222.394 81.7885Z" fill="#F2F2F2"/>
<path d="M356.065 277.859C353.66 274.827 352.677 274.117 350.305 271.058C330.991 246.121 312.836 220.342 295.843 193.72C284.3 175.639 273.33 157.212 262.932 138.437C257.981 129.511 253.167 120.515 248.488 111.449C244.857 104.42 241.307 97.3483 237.839 90.2348C236.847 88.203 235.883 86.1619 234.924 84.1161C232.664 79.3052 230.446 74.471 228.065 69.7255C225.351 64.3168 222.048 58.6465 217.064 55.0127C214.797 53.2911 212.085 52.2494 209.246 52.0094C205.189 51.7478 201.446 53.42 197.928 55.2462C172.185 68.6466 148.084 85.4473 126.285 104.565C104.43 123.725 84.8957 145.371 68.0795 169.063C67.5651 169.796 66.3485 169.096 66.8678 168.358C68.9125 165.471 70.9977 162.616 73.1235 159.792C99.5558 124.698 131.966 94.5201 168.872 70.6363C175.081 66.6195 181.407 62.791 187.85 59.1509C191.097 57.3153 194.358 55.5031 197.675 53.803C200.927 52.1355 204.38 50.6362 208.095 50.5801C220.737 50.384 227.283 64.6764 231.78 74.2935C233.193 77.3202 234.623 80.3375 236.07 83.3454C241.54 94.7654 247.22 106.081 253.111 117.292C256.746 124.214 260.461 131.096 264.256 137.937C276.065 159.24 288.617 180.112 301.911 200.553C319.523 227.629 336.994 251.548 357.057 276.868C357.609 277.569 356.622 278.569 356.065 277.859Z" fill="#E4E4E4"/>
<path d="M125.036 97.5072C124.301 96.6898 123.571 95.8724 122.832 95.055C117.002 88.6187 110.747 82.2572 102.741 78.5673C98.9236 76.7524 94.7566 75.7881 90.5289 75.7415C86.1589 75.7555 81.8871 76.8998 77.8493 78.5019C75.9403 79.2633 74.0733 80.1273 72.2346 81.0474C70.1337 82.103 68.0703 83.2287 66.0164 84.3637C62.1609 86.4936 58.3554 88.7168 54.6 91.0335C47.1277 95.6435 39.8895 100.605 32.8852 105.919C29.2543 108.675 25.6983 111.521 22.2172 114.457C18.9795 117.185 15.8072 119.986 12.7005 122.86C12.0361 123.472 11.0441 122.482 11.7085 121.87C12.5273 121.108 13.3555 120.352 14.1836 119.605C16.5231 117.493 18.9 115.423 21.3144 113.392C25.717 109.684 30.2337 106.118 34.8644 102.696C42.0652 97.3717 49.514 92.4083 57.2106 87.806C61.0568 85.508 64.9558 83.3066 68.9078 81.2016C70.1011 80.5664 71.3083 79.9452 72.5294 79.3567C75.3002 77.9614 78.1792 76.7915 81.1385 75.8583C85.3303 74.5045 89.7654 74.0696 94.1411 74.5832C98.3659 75.1966 102.436 76.6023 106.138 78.7261C113.998 83.1119 120.095 89.8938 126.028 96.5123C126.627 97.1849 125.639 98.1798 125.036 97.5072Z" fill="#E4E4E4"/>
<path d="M286.094 164.204L304.929 157.327L314.281 153.912C317.327 152.8 320.365 151.534 323.514 150.738C326.25 149.958 329.155 149.995 331.871 150.844C334.292 151.739 336.509 153.111 338.389 154.878C340.31 156.643 342.096 158.548 343.735 160.577C345.771 163.02 347.777 165.488 349.792 167.948C358.109 178.101 366.371 188.298 374.578 198.539C382.786 208.78 390.938 219.065 399.036 229.393C407.153 239.746 415.215 250.142 423.221 260.582C424.202 261.861 425.182 263.14 426.161 264.421C426.701 265.128 427.921 264.431 427.373 263.713C419.308 253.169 411.187 242.667 403.009 232.209C394.812 221.725 386.558 211.286 378.247 200.892C369.937 190.498 361.57 180.148 353.147 169.844C351.049 167.277 348.947 164.713 346.841 162.151C345.066 159.991 343.31 157.807 341.362 155.796C337.786 152.104 333.319 148.842 327.972 148.754C324.828 148.702 321.786 149.698 318.865 150.752C315.716 151.89 312.574 153.048 309.43 154.196L290.462 161.122L285.72 162.853C284.879 163.16 285.242 164.515 286.094 164.204Z" fill="#E4E4E4"/>
<path d="M100.262 86.666C90.6902 81.7551 78.4321 82.7169 69.6362 88.8524C86.4137 91.7419 103.008 95.6081 119.333 100.431C112.554 96.4653 107.251 90.2516 100.262 86.666Z" fill="#F2F2F2"/>
<path d="M69.5419 88.8354L67.6992 90.3306C68.3225 89.8073 68.9705 89.3167 69.6361 88.8524C69.6047 88.847 69.5734 88.8409 69.5419 88.8354Z" fill="#F2F2F2"/>
<path d="M337.68 164.273C335.826 162.02 333.821 159.661 331.048 158.746L328.458 158.848C348.169 193.615 374.788 223.995 406.684 248.122C383.683 220.173 360.681 192.223 337.68 164.273Z" fill="#F2F2F2"/>
<path d="M176.67 145.687C177.868 150.033 180.568 153.815 184.291 156.365C185.73 157.344 187.433 158.282 187.926 159.949C188.185 161.012 188.025 162.134 187.48 163.083C186.935 164.019 186.273 164.883 185.509 165.651L185.439 165.912C181.867 163.799 178.469 161.126 176.496 157.479C174.523 153.833 174.248 149.053 176.67 145.687Z" fill="#F2F2F2"/>
<path d="M295.591 249.115C296.789 253.461 299.488 257.244 303.211 259.794C304.651 260.772 306.354 261.71 306.846 263.378C307.105 264.441 306.945 265.562 306.4 266.511C305.856 267.448 305.193 268.311 304.429 269.08L304.36 269.341C300.788 267.228 297.389 264.555 295.416 260.908C293.443 257.261 293.168 252.481 295.591 249.115Z" fill="#F2F2F2"/>
<path d="M58.2606 241.982C59.4588 246.328 62.1582 250.11 65.8812 252.661C67.3206 253.639 69.0236 254.577 69.516 256.245C69.775 257.308 69.6154 258.429 69.0701 259.378C68.5258 260.315 67.8635 261.178 67.0994 261.947L67.0296 262.208C63.4577 260.095 60.0595 257.422 58.0865 253.775C56.1134 250.128 55.8379 245.348 58.2606 241.982Z" fill="#F2F2F2"/>
<path d="M331.368 51.969C345.744 51.969 357.398 40.3354 357.398 25.9845C357.398 11.6337 345.744 0 331.368 0C316.992 0 305.339 11.6337 305.339 25.9845C305.339 40.3354 316.992 51.969 331.368 51.969Z" fill="#6C63FF"/>
<path d="M378.342 6.04807C365.727 4.34586 351.325 11.1526 348.055 23.434C347.231 21.2504 345.733 19.3848 343.777 18.1067C341.821 16.8286 339.509 16.2043 337.175 16.3239C334.841 16.4434 332.605 17.3008 330.79 18.7719C328.976 20.2431 327.677 22.252 327.081 24.5084L328.526 25.541C355.559 31.3769 383.544 31.2506 410.524 25.1709C401.749 15.9648 390.957 7.75024 378.342 6.04807Z" fill="#F0F0F0"/>
<path d="M324.241 40.6941C311.626 38.9919 297.223 45.7986 293.954 58.08C293.13 55.8964 291.632 54.0308 289.676 52.7527C287.72 51.4746 285.408 50.8503 283.074 50.9699C280.74 51.0894 278.504 51.9468 276.689 53.4179C274.875 54.8891 273.576 56.898 272.98 59.1544L274.424 60.187C301.458 66.0229 329.443 65.8966 356.423 59.8169C347.648 50.6108 336.856 42.3962 324.241 40.6941Z" fill="#F0F0F0"/>
<path d="M434.345 47.2449C434.293 47.2451 434.241 47.237 434.191 47.2211C299.241 4.6176 180.302 10.1888 104.287 22.3645C93.9423 24.0209 83.5698 25.934 73.4578 28.0511C70.8762 28.591 68.1979 29.1696 65.4974 29.7722C62.2724 30.4892 59.0902 31.2275 56.0388 31.9659C54.721 32.2774 53.4289 32.5913 52.1626 32.9078C50.2444 33.3805 48.298 33.873 46.2116 34.4144C43.8802 35.0144 41.5115 35.6439 39.1696 36.2852C39.161 36.2882 39.1523 36.2907 39.1434 36.2927L39.1437 36.2932C36.4986 37.0141 33.8674 37.756 31.3229 38.4969C29.9458 38.8939 28.616 39.2855 27.3422 39.6721C27.1999 39.7114 27.0738 39.7492 26.946 39.788L26.6723 39.8711C26.5138 39.9194 26.3573 39.9667 26.2008 40.0114L26.1909 40.0144L26.1911 40.0149L25.7769 40.1433C25.283 40.2926 24.801 40.4384 24.327 40.5837C11.7996 44.4387 4.91286 47.1813 4.84482 47.2082C4.78261 47.2331 4.71609 47.2455 4.64907 47.2447C4.58205 47.2439 4.51584 47.23 4.45421 47.2037C4.39259 47.1774 4.33675 47.1392 4.2899 47.0914C4.24305 47.0435 4.20611 46.9869 4.18117 46.9248C4.15623 46.8627 4.1438 46.7963 4.14456 46.7294C4.14533 46.6625 4.1593 46.5964 4.18565 46.5349C4.21201 46.4733 4.25025 46.4176 4.29818 46.3708C4.34612 46.3241 4.40281 46.2872 4.46502 46.2623C4.53356 46.2354 11.4539 43.479 24.027 39.6094C24.5027 39.4637 24.9859 39.3179 25.4814 39.1681L25.8661 39.0487C25.8794 39.0437 25.8926 39.0397 25.906 39.0358C26.0618 38.9915 26.2173 38.9442 26.3753 38.8964L26.6494 38.8133C26.786 38.7721 26.9206 38.7313 27.0584 38.6934C28.3234 38.3093 29.6577 37.9167 31.0383 37.5182C33.5838 36.7768 36.2174 36.035 38.8646 35.313C38.8728 35.31 38.8813 35.308 38.8895 35.3056C41.2396 34.6622 43.6171 34.0298 45.9559 33.4278C48.0456 32.8859 49.9956 32.3923 51.9171 31.9187C53.1888 31.6027 54.4834 31.2881 55.8008 30.9748C58.8557 30.2354 62.0443 29.4961 65.2751 28.7776C67.9798 28.1745 70.6626 27.5944 73.2484 27.054C83.3762 24.9334 93.7648 23.0173 104.125 21.3585C180.249 9.1653 299.359 3.58515 434.499 46.2498C434.615 46.2864 434.714 46.3634 434.778 46.4667C434.843 46.57 434.868 46.6929 434.849 46.8131C434.831 46.9333 434.77 47.043 434.677 47.1222C434.585 47.2014 434.467 47.2449 434.345 47.2449Z" fill="#CCCCCC"/>
<path d="M134.226 213.909C134.049 213.393 133.752 212.926 133.358 212.548C133.213 212.414 133.056 212.293 132.889 212.186C131.557 211.3 129.566 211.101 128.301 212.186C128.173 212.297 128.055 212.418 127.948 212.548C127.571 213.012 127.183 213.465 126.785 213.909C126.131 214.652 125.463 215.371 124.764 216.069C124.564 216.262 124.365 216.461 124.161 216.655C124.044 216.772 123.926 216.884 123.809 216.996C123.36 217.424 122.901 217.837 122.436 218.244C122.191 218.463 121.946 218.677 121.696 218.886C121.324 219.197 120.951 219.508 120.573 219.809C120.538 219.834 120.502 219.859 120.466 219.89C120.456 219.895 120.451 219.905 120.441 219.91C120.435 219.91 120.43 219.91 120.425 219.921C120.411 219.926 120.399 219.935 120.39 219.946C120.277 220.023 120.201 220.073 120.145 220.119C120.165 220.109 120.185 220.094 120.206 220.084C120.114 220.155 120.017 220.226 119.925 220.298C119.032 220.955 118.118 221.587 117.184 222.178C114.873 223.654 112.446 224.941 109.927 226.024C109.758 226.091 109.585 226.162 109.411 226.228C102.814 228.926 95.6579 229.979 88.5618 229.295C87.837 229.239 87.1122 229.163 86.3875 229.066C85.5505 228.944 84.7186 228.796 83.8917 228.628C80.744 228.001 77.664 227.073 74.6945 225.856C70.98 224.158 67.4471 222.089 64.1499 219.681C63.6396 219.319 63.1241 218.958 62.6086 218.606C63.1955 217.169 63.7723 215.733 64.3337 214.286C64.6144 213.588 64.8849 212.89 65.1503 212.186C67.2378 206.77 69.1977 201.303 71.0759 195.816C72.9745 190.258 74.766 184.667 76.4503 179.043C76.6238 178.473 76.7922 177.902 76.9556 177.332C77.8385 174.361 78.6858 171.384 79.4973 168.4C79.5738 168.11 79.6555 167.824 79.727 167.534C79.9617 166.678 80.1914 165.822 80.416 164.966C80.9264 163.035 79.7729 160.727 77.7416 160.263C76.7635 160.013 75.7263 160.151 74.8485 160.649C73.9707 161.147 73.3208 161.966 73.0358 162.933C72.8163 163.758 72.5969 164.579 72.3723 165.404C71.2954 169.393 70.1623 173.369 68.9731 177.332C68.7996 177.902 68.626 178.473 68.4525 179.043C65.8291 187.674 62.9488 196.219 59.8116 204.676C59.434 205.7 59.0512 206.721 58.6633 207.738C58.4744 208.238 58.2856 208.737 58.0916 209.236C57.7191 210.22 57.3363 211.203 56.9535 212.186C56.734 212.762 56.5094 213.338 56.2849 213.909C56.1369 214.27 55.994 214.632 55.8511 214.989C54.3958 214.467 52.8882 214.105 51.3545 213.909L51.1096 213.878C49.9206 213.735 48.7181 213.745 47.5317 213.909C45.7561 214.115 44.0477 214.709 42.5273 215.648C41.0068 216.586 39.7114 217.846 38.7327 219.34C36.2981 223.166 36.3287 228.638 39.7432 231.889C43.2598 235.236 48.5831 235.211 52.7224 233.117C54.9159 231.932 56.7655 230.201 58.0916 228.093C58.5997 227.329 59.0665 226.538 59.4901 225.724C59.5973 225.795 59.7045 225.866 59.8116 225.943C60.22 226.228 60.6283 226.519 61.0315 226.804C63.3808 228.503 65.8566 230.021 68.4372 231.344C73.9861 234.097 79.9592 235.901 86.1068 236.678C86.2446 236.693 86.3773 236.714 86.5151 236.729C87.1939 236.816 87.8778 236.882 88.5618 236.938C98.3725 237.676 108.195 235.672 116.929 231.15C117.669 230.768 118.402 230.367 119.129 229.948C120.257 229.295 121.359 228.603 122.436 227.869C123.023 227.471 123.595 227.069 124.161 226.646C126.637 224.826 128.945 222.788 131.057 220.557C131.858 219.717 132.625 218.849 133.358 217.954C134.052 217.222 134.451 216.261 134.481 215.254C134.477 214.794 134.391 214.338 134.226 213.909ZM49.7111 226.045C49.8183 225.968 49.9255 225.887 50.0275 225.805C49.9969 225.882 49.8489 225.968 49.7111 226.045ZM51.3494 224.399C51.232 224.532 51.1249 224.664 51.0075 224.797C50.6503 225.195 50.2667 225.57 49.8591 225.917C49.803 225.968 49.7417 226.019 49.6805 226.065C49.6798 226.065 49.6791 226.065 49.6785 226.066C49.6779 226.066 49.6773 226.066 49.6768 226.067C49.6764 226.067 49.676 226.068 49.6757 226.068C49.6755 226.069 49.6754 226.07 49.6754 226.07C49.6016 226.103 49.53 226.141 49.461 226.182C49.2415 226.315 49.017 226.437 48.7873 226.549C48.3376 226.714 47.875 226.842 47.4042 226.931C47.0424 226.958 46.6793 226.961 46.317 226.942H46.3068C46.0568 226.886 45.8098 226.818 45.5668 226.738C45.4443 226.677 45.3269 226.605 45.2095 226.534C45.1635 226.493 45.1227 226.452 45.0972 226.427C45.0473 226.381 45.0013 226.332 44.9594 226.279C44.9594 226.279 44.9593 226.278 44.9591 226.277C44.9588 226.277 44.9584 226.276 44.958 226.276C44.9575 226.275 44.9569 226.275 44.9563 226.274C44.9557 226.274 44.955 226.274 44.9543 226.274C44.8981 226.172 44.8369 226.07 44.7808 225.968C44.7779 225.966 44.776 225.962 44.7757 225.958C44.7348 225.831 44.6991 225.698 44.6685 225.566C44.6574 225.333 44.6591 225.1 44.6736 224.868C44.7421 224.542 44.8342 224.222 44.9492 223.91C45.0525 223.689 45.1702 223.474 45.3014 223.268C45.3116 223.248 45.3626 223.166 45.4188 223.074C45.4239 223.069 45.4239 223.069 45.4239 223.064C45.5004 222.978 45.577 222.886 45.6587 222.804C45.7965 222.652 45.9445 222.519 46.0925 222.381C46.3803 222.193 46.6785 222.022 46.9857 221.867C47.4729 221.694 47.9729 221.56 48.4811 221.464C49.2305 221.405 49.9837 221.412 50.7319 221.485C51.4406 221.608 52.1398 221.779 52.8245 221.999C52.4095 222.803 51.937 223.576 51.4107 224.312C51.3903 224.343 51.3699 224.374 51.3494 224.399ZM45.6739 222.723C45.629 222.795 45.5759 222.862 45.5157 222.922C45.5562 222.846 45.6098 222.779 45.6739 222.723Z" fill="#3F3D56"/>
<path d="M118.884 161.873C118.838 163.473 118.792 165.073 118.746 166.673C118.649 170.224 118.549 173.777 118.445 177.332C118.338 181.331 118.225 185.329 118.108 189.325C118.052 191.389 117.994 193.452 117.934 195.516C117.776 201.074 117.62 206.631 117.465 212.186C117.45 212.762 117.429 213.333 117.414 213.909C117.337 216.665 117.261 219.421 117.184 222.178C117.097 225.168 117.012 228.159 116.929 231.15C116.868 233.392 116.805 235.635 116.74 237.88C116.281 254.149 115.821 270.417 115.362 286.686C115.343 287.693 114.933 288.654 114.219 289.366C113.506 290.079 112.543 290.487 111.534 290.507C110.522 290.499 109.553 290.093 108.836 289.379C108.12 288.664 107.714 287.696 107.706 286.686C107.961 277.535 108.22 268.384 108.482 259.234C108.712 250.959 108.945 242.685 109.181 234.411C109.258 231.685 109.334 228.957 109.411 226.228C109.528 222.122 109.644 218.015 109.758 213.909C109.773 213.333 109.794 212.762 109.809 212.186C109.819 211.682 109.835 211.183 109.85 210.678C110.074 202.705 110.299 194.729 110.524 186.752C110.615 183.614 110.704 180.473 110.789 177.332C110.891 173.75 110.993 170.17 111.095 166.591C111.141 165.017 111.182 163.448 111.228 161.873C111.247 160.866 111.657 159.905 112.371 159.193C113.084 158.48 114.047 158.071 115.056 158.052C116.069 158.06 117.037 158.465 117.754 159.18C118.47 159.895 118.876 160.862 118.884 161.873Z" fill="#3F3D56"/>
<path d="M328.872 162.934C324.858 178.106 320.06 193.062 314.498 207.74C312.964 211.789 311.394 215.829 309.715 219.821L310.101 218.908C309.352 220.81 308.395 222.623 307.248 224.315C307.17 224.424 307.091 224.532 307.01 224.639C307.407 224.133 307.482 224.033 307.236 224.339C307.106 224.492 306.978 224.646 306.844 224.795C306.487 225.195 306.104 225.57 305.697 225.918C305.594 226.005 305.49 226.091 305.384 226.175L305.863 225.803C305.807 225.934 305.417 226.108 305.296 226.182C304.903 226.419 304.493 226.626 304.069 226.803L304.983 226.417C304.288 226.697 303.564 226.895 302.824 227.009L303.841 226.872C303.114 226.973 302.377 226.981 301.648 226.896L302.665 227.032C302.068 226.95 301.485 226.793 300.927 226.565L301.842 226.95C301.544 226.821 301.258 226.668 300.985 226.494C300.846 226.404 300.421 226.082 300.977 226.506C301.556 226.947 301.052 226.544 300.933 226.427C300.833 226.329 300.744 226.223 300.647 226.124C300.197 225.663 301.155 226.917 300.849 226.378C300.686 226.108 300.536 225.829 300.401 225.544L300.787 226.457C300.611 226.022 300.487 225.569 300.416 225.106L300.552 226.122C300.479 225.546 300.479 224.963 300.551 224.387L300.414 225.403C300.508 224.76 300.678 224.13 300.922 223.528L300.536 224.44C300.706 224.035 300.907 223.644 301.137 223.269C301.243 223.076 301.368 222.893 301.509 222.723C301.534 222.732 300.861 223.494 301.218 223.109C301.312 223.008 301.399 222.902 301.493 222.802C301.644 222.643 301.806 222.496 301.966 222.345C302.499 221.838 301.22 222.837 301.835 222.436C302.281 222.144 302.75 221.888 303.238 221.672L302.324 222.058C303.141 221.722 303.998 221.493 304.873 221.375L303.855 221.511C304.952 221.385 306.06 221.399 307.153 221.55L306.135 221.414C307.52 221.623 308.872 222.003 310.163 222.545L309.249 222.16C312 223.339 314.436 225.089 316.868 226.805C319.217 228.503 321.692 230.02 324.272 231.343C329.821 234.097 335.794 235.901 341.942 236.68C350.76 237.758 359.707 236.608 367.963 233.337C376.22 230.065 383.521 224.776 389.197 217.954C389.889 217.221 390.288 216.26 390.318 215.252C390.311 214.24 389.909 213.271 389.197 212.55C387.792 211.263 385.14 210.9 383.783 212.55C382.498 214.117 381.116 215.602 379.646 216.997C378.959 217.647 378.255 218.277 377.532 218.887C377.119 219.235 376.7 219.577 376.276 219.912C376.075 220.07 375.45 220.491 376.41 219.811C376.19 219.967 375.979 220.137 375.761 220.297C372.547 222.663 369.064 224.641 365.384 226.19L366.299 225.805C362.35 227.458 358.203 228.592 353.962 229.179L354.98 229.042C350.616 229.615 346.197 229.609 341.835 229.023L342.853 229.159C338.492 228.561 334.228 227.402 330.166 225.71L331.08 226.095C327.161 224.364 323.441 222.213 319.987 219.68C318.189 218.351 316.293 217.16 314.315 216.116C312.01 214.941 309.515 214.184 306.946 213.88C302.128 213.314 297.219 215.188 294.571 219.342C292.133 223.166 292.165 228.638 295.578 231.889C299.093 235.238 304.417 235.209 308.56 233.115C312.55 231.097 314.946 226.906 316.632 222.954C320.425 214.061 323.782 204.962 326.911 195.817C330.006 186.769 332.813 177.63 335.332 168.399C335.644 167.256 335.951 166.111 336.254 164.965C336.765 163.035 335.61 160.726 333.58 160.265C332.602 160.013 331.564 160.151 330.685 160.649C329.807 161.147 329.157 161.966 328.872 162.934Z" fill="#3F3D56"/>
<path d="M367.065 161.873L365.687 210.68L364.317 259.232L363.542 286.686C363.55 287.697 363.956 288.663 364.672 289.378C365.388 290.093 366.357 290.498 367.37 290.507C368.379 290.488 369.341 290.079 370.055 289.366C370.768 288.654 371.178 287.693 371.197 286.686L372.575 237.879L373.946 189.327L374.721 161.873C374.712 160.862 374.306 159.895 373.59 159.18C372.874 158.466 371.906 158.06 370.893 158.052C369.884 158.071 368.922 158.48 368.208 159.193C367.494 159.905 367.085 160.866 367.065 161.873Z" fill="#3F3D56"/>
<path opacity="0.2" d="M234.569 273.059H235.758V219.031H263.487V217.847H235.758V195.05H257.172C256.858 194.651 256.535 194.258 256.203 193.869H235.758V178.812C235.365 178.645 234.969 178.484 234.569 178.332V193.869H211.269V174.577C210.87 174.595 210.477 174.623 210.081 174.656V193.869H191.492V179.476C191.093 179.652 190.7 179.838 190.31 180.032V193.869H174.684V195.05H190.31V217.847H174.684V219.031H190.31V273.059H191.492V219.031C193.933 219.03 196.351 219.51 198.606 220.442C200.862 221.375 202.911 222.741 204.637 224.465C206.364 226.188 207.733 228.234 208.667 230.485C209.601 232.737 210.081 235.15 210.081 237.587V273.059H211.269V219.031H234.569V273.059ZM191.492 217.847V195.05H210.081V217.847H191.492ZM211.269 217.847V195.05H211.736C214.734 195.05 217.704 195.64 220.474 196.786C223.245 197.932 225.762 199.611 227.882 201.728C230.003 203.845 231.684 206.358 232.832 209.124C233.979 211.889 234.57 214.854 234.57 217.847H211.269Z" fill="black"/>
<path d="M227.311 256.859C225.814 263.523 222.23 269.537 217.077 274.03C216.7 274.356 216.322 274.672 215.929 274.982C214.975 275.069 214.027 275.157 213.086 275.247C212.305 275.319 211.534 275.395 210.769 275.466L210.631 275.482L210.534 274.646L210.146 271.263C208.641 268.811 207.709 266.052 207.417 263.191C207.126 260.329 207.483 257.439 208.462 254.735C209.809 251.107 212.249 247.902 214.648 244.723C217.96 240.331 221.181 235.99 221.298 230.635C222.928 232.718 224.283 235 225.33 237.427C224.342 237.891 223.455 238.544 222.717 239.348C222.508 239.577 222.299 239.898 222.441 240.173C222.564 240.408 222.87 240.464 223.136 240.494C223.774 240.561 224.417 240.627 225.055 240.693C225.565 240.749 226.075 240.8 226.586 240.856C227.203 242.879 227.622 244.958 227.836 247.062C228.18 250.335 228.003 253.642 227.311 256.859Z" fill="#3F3D56"/>
<path d="M244.255 243.505C241.244 245.691 239.483 248.835 238.115 252.299C236.714 252.747 235.452 253.551 234.456 254.633C234.247 254.862 234.038 255.183 234.18 255.458C234.303 255.693 234.609 255.749 234.875 255.779C235.513 255.845 236.156 255.912 236.794 255.978C235.426 260.074 234.17 264.313 231.751 267.773C230.142 270.057 228.045 271.956 225.611 273.331C224.947 273.709 224.262 274.047 223.559 274.345C220.966 274.544 218.423 274.756 215.929 274.982C214.975 275.069 214.027 275.157 213.086 275.247C212.305 275.319 211.535 275.395 210.769 275.466C210.764 275.186 210.764 274.906 210.769 274.626C210.93 267.161 213.681 259.983 218.552 254.317C218.782 254.052 219.017 253.792 219.257 253.532C221.724 250.901 224.626 248.712 227.836 247.062C232.894 244.436 238.563 243.209 244.255 243.505Z" fill="#6C63FF"/>
<path d="M213.969 272.633L213.382 274.366L213.086 275.247C212.305 275.319 211.535 275.395 210.769 275.466L210.631 275.482C209.784 275.568 208.942 275.655 208.1 275.741C207.88 275.487 207.661 275.227 207.446 274.962C202.119 268.522 199.562 260.239 200.334 251.922C201.105 243.606 205.143 235.933 211.565 230.579C210.891 234.1 211.677 237.473 212.969 240.82C212.831 240.876 212.698 240.932 212.571 240.994C211.583 241.458 210.695 242.11 209.957 242.914C209.748 243.144 209.539 243.465 209.682 243.74C209.804 243.974 210.111 244.03 210.376 244.061C211.014 244.127 211.657 244.193 212.295 244.259C212.805 244.315 213.316 244.366 213.826 244.422C214.066 244.448 214.306 244.473 214.546 244.499C214.582 244.575 214.612 244.647 214.648 244.723C216.103 247.872 217.669 251.036 218.552 254.317C218.774 255.14 218.948 255.975 219.073 256.819C219.466 259.668 219.211 262.569 218.328 265.307C217.444 268.045 215.954 270.549 213.969 272.633Z" fill="#6C63FF"/>
<path d="M265.344 198.736C260.95 190.18 254.143 182.982 246.137 177.692C238.105 172.409 228.889 169.192 219.309 168.327C218.054 168.213 216.795 168.147 215.533 168.127C214.042 168.105 191.613 174.563 184.1 179.836C176.59 185.046 170.413 191.944 166.066 199.975C161.727 208.051 159.593 217.123 159.878 226.283C160.249 235.497 162.822 244.489 167.382 252.51C171.879 260.504 178.264 267.281 185.982 272.251C193.81 277.237 201.674 290.458 210.917 290.925C220.229 291.395 230.85 278.923 239.343 275.137C247.836 271.318 255.179 265.345 260.639 257.811C265.945 250.428 269.378 241.87 270.642 232.872C271.956 223.659 271.344 214.157 268.192 205.351C267.383 203.088 266.432 200.879 265.344 198.736C264.435 196.95 261.773 196.292 260.106 197.365C259.248 197.893 258.626 198.731 258.37 199.704C258.114 200.678 258.244 201.713 258.733 202.593C259.266 203.642 259.762 204.708 260.221 205.792L259.835 204.879C261.57 209.044 262.75 213.419 263.345 217.891L263.208 216.875C263.84 221.726 263.829 226.64 263.174 231.488L263.311 230.473C262.649 235.321 261.353 240.061 259.455 244.573L259.841 243.66C258.865 245.962 257.727 248.192 256.436 250.333C255.782 251.415 255.088 252.472 254.353 253.503C254.031 253.956 253.699 254.401 253.364 254.844C252.927 255.422 253.959 254.088 253.508 254.656C253.431 254.752 253.354 254.849 253.277 254.946C253.045 255.235 252.81 255.522 252.572 255.806C250.981 257.701 249.244 259.47 247.378 261.096C246.913 261.501 246.441 261.897 245.96 262.284C245.721 262.476 245.485 262.677 245.235 262.857C245.245 262.85 246.041 262.246 245.57 262.596C245.421 262.707 245.274 262.819 245.126 262.929C244.136 263.661 243.119 264.356 242.077 265.013C239.676 266.523 237.158 267.837 234.546 268.943L235.46 268.558C230.954 270.452 226.219 271.745 221.375 272.406L222.393 272.269C217.551 272.922 212.645 272.931 207.801 272.295L208.819 272.431C204.417 271.841 200.111 270.679 196.01 268.975L196.925 269.36C194.55 268.359 192.26 267.168 190.077 265.798C188.997 265.119 187.945 264.397 186.921 263.634C186.775 263.525 186.63 263.415 186.485 263.305C186.018 262.953 186.821 263.565 186.827 263.569C186.555 263.374 186.294 263.166 186.044 262.945C185.549 262.543 185.062 262.132 184.583 261.711C182.666 260.026 180.876 258.202 179.228 256.255C178.815 255.767 178.411 255.273 178.016 254.772C177.845 254.554 177.533 254.114 178.222 255.041C178.132 254.919 178.037 254.799 177.946 254.678C177.726 254.387 177.509 254.093 177.295 253.798C176.545 252.763 175.833 251.702 175.157 250.616C173.631 248.157 172.299 245.583 171.174 242.918L171.559 243.831C169.718 239.456 168.458 234.859 167.813 230.157L167.95 231.173C167.368 226.839 167.359 222.448 167.925 218.112L167.788 219.127C168.368 214.928 169.5 210.824 171.154 206.92L170.768 207.833C171.809 205.389 173.037 203.029 174.44 200.773C175.143 199.644 175.888 198.543 176.675 197.469C176.854 197.225 177.034 196.983 177.217 196.742C177.382 196.524 177.837 195.981 177.061 196.94C177.137 196.846 177.211 196.749 177.285 196.654C177.717 196.108 178.159 195.571 178.612 195.042C180.326 193.039 182.182 191.162 184.167 189.427C184.669 188.988 185.178 188.558 185.695 188.138C185.93 187.947 186.167 187.758 186.405 187.571C186.501 187.496 186.597 187.423 186.692 187.348C185.672 188.157 186.409 187.568 186.64 187.395C187.706 186.597 188.801 185.84 189.925 185.122C192.422 183.528 195.049 182.146 197.778 180.991L196.863 181.376C200.824 179.716 218.371 175.797 221.563 176.225L220.545 176.089C225.236 176.742 229.821 178.007 234.183 179.85L233.268 179.465C235.479 180.402 237.627 181.479 239.699 182.69C240.735 183.295 241.75 183.934 242.745 184.607C243.216 184.925 243.682 185.25 244.143 185.582C244.373 185.748 244.602 185.916 244.83 186.086C244.956 186.18 245.082 186.276 245.208 186.37C245.738 186.767 244.477 185.796 245.034 186.234C246.894 187.694 248.662 189.269 250.325 190.949C251.142 191.78 251.931 192.636 252.692 193.52C253.082 193.973 253.464 194.433 253.838 194.899C254.024 195.131 254.657 195.969 253.881 194.942C254.071 195.193 254.263 195.443 254.45 195.696C256.063 197.875 257.495 200.182 258.733 202.593C259.648 204.375 262.299 205.04 263.97 203.964C264.829 203.437 265.451 202.599 265.707 201.625C265.963 200.651 265.833 199.616 265.344 198.736Z" fill="#3F3D56"/>
<path d="M220.741 261.096C220.346 261.114 219.955 261.011 219.62 260.8C219.286 260.588 219.025 260.28 218.873 259.915C218.72 259.551 218.683 259.149 218.767 258.763C218.851 258.377 219.052 258.026 219.343 257.758C219.391 257.565 219.426 257.427 219.475 257.234C219.458 257.192 219.44 257.15 219.422 257.108C217.646 252.88 206.313 264.665 205.823 268.639C205.607 270.395 205.698 272.175 206.092 273.901C202.421 265.907 200.515 257.218 200.503 248.424C200.502 246.217 200.625 244.012 200.871 241.819C201.074 240.022 201.356 238.236 201.716 236.464C203.684 226.848 207.908 217.835 214.043 210.166C217.551 210.361 220.626 209.828 220.923 203.04C220.975 201.833 221.873 200.787 222.07 199.598C221.735 199.642 221.395 199.669 221.06 199.691C220.956 199.697 220.846 199.702 220.741 199.708L220.702 199.709C220.334 199.726 219.969 199.636 219.651 199.45C219.333 199.264 219.076 198.991 218.91 198.662C218.744 198.334 218.677 197.964 218.716 197.599C218.756 197.233 218.9 196.886 219.132 196.601C219.277 196.423 219.422 196.246 219.566 196.068C219.786 195.794 220.011 195.525 220.231 195.251C220.256 195.225 220.28 195.198 220.302 195.169C220.555 194.857 220.807 194.55 221.06 194.237C220.599 193.523 219.979 192.925 219.248 192.489C216.717 191.009 213.225 192.034 211.396 194.32C209.562 196.605 209.216 199.812 209.853 202.667C210.48 205.097 211.516 207.403 212.917 209.486C212.78 209.661 212.637 209.831 212.5 210.007C209.991 213.228 207.804 216.686 205.97 220.333C206.489 216.289 200.146 201.681 197.693 198.588C194.746 194.871 188.704 196.493 188.185 201.204C188.18 201.25 188.175 201.295 188.171 201.341C188.535 201.546 188.892 201.764 189.241 201.994C189.679 202.287 190.019 202.704 190.215 203.193C190.412 203.681 190.456 204.218 190.342 204.731C190.228 205.245 189.961 205.713 189.576 206.073C189.191 206.432 188.707 206.668 188.185 206.748L188.132 206.756C183.255 213.708 198.89 231.801 202.803 227.738C200.961 232.949 199.806 238.377 199.366 243.886C199.117 247.136 199.132 250.4 199.41 253.648L199.394 253.533C198.524 246.46 183.607 235.943 179.25 236.819C176.741 237.324 174.269 237.209 174.65 239.736C174.656 239.776 174.663 239.817 174.669 239.857C175.345 240.132 176.003 240.449 176.64 240.805C177.004 241.011 177.361 241.228 177.71 241.459C178.148 241.751 178.488 242.169 178.685 242.657C178.881 243.146 178.925 243.682 178.811 244.196C178.697 244.71 178.43 245.177 178.045 245.537C177.661 245.897 177.176 246.132 176.655 246.213L176.602 246.221C176.563 246.226 176.53 246.232 176.492 246.237C174.272 253.863 190.735 266.169 200.744 262.253H200.75C201.742 266.556 203.179 270.744 205.038 274.75H220.357C220.412 274.58 220.461 274.405 220.511 274.235C219.093 274.324 217.669 274.239 216.272 273.983C217.409 272.591 218.545 271.187 219.682 269.795C219.707 269.769 219.731 269.742 219.753 269.713C220.33 269 220.912 268.293 221.488 267.581L221.488 267.58C221.519 265.396 221.268 263.217 220.741 261.097L220.741 261.096ZM203.199 226.647L203.207 226.637L203.199 226.658V226.647ZM199.805 257.183L199.674 256.887C199.679 256.673 199.679 256.46 199.674 256.24C199.674 256.18 199.663 256.12 199.663 256.059C199.712 256.438 199.756 256.816 199.811 257.194L199.805 257.183Z" fill="#3F3D56"/>
<path d="M48.6138 229.275C51.7144 229.275 54.228 226.766 54.228 223.671C54.228 220.575 51.7144 218.066 48.6138 218.066C45.5131 218.066 42.9995 220.575 42.9995 223.671C42.9995 226.766 45.5131 229.275 48.6138 229.275Z" fill="#3F3D56"/>
<path d="M115.985 290.415C119.086 290.415 121.599 287.906 121.599 284.811C121.599 281.715 119.086 279.206 115.985 279.206C112.884 279.206 110.371 281.715 110.371 284.811C110.371 287.906 112.884 290.415 115.985 290.415Z" fill="#3F3D56"/>
<path d="M371.689 290.415C374.79 290.415 377.303 287.906 377.303 284.811C377.303 281.715 374.79 279.206 371.689 279.206C368.588 279.206 366.075 281.715 366.075 284.811C366.075 287.906 368.588 290.415 371.689 290.415Z" fill="#3F3D56"/>
<path d="M385.469 219.085C388.57 219.085 391.083 216.576 391.083 213.48C391.083 210.385 388.57 207.876 385.469 207.876C382.369 207.876 379.855 210.385 379.855 213.48C379.855 216.576 382.369 219.085 385.469 219.085Z" fill="#3F3D56"/>
<path d="M369.137 167.116C372.238 167.116 374.751 164.607 374.751 161.511C374.751 158.416 372.238 155.907 369.137 155.907C366.036 155.907 363.523 158.416 363.523 161.511C363.523 164.607 366.036 167.116 369.137 167.116Z" fill="#3F3D56"/>
<path d="M134.869 213.481C134.866 214.912 134.311 216.288 133.32 217.322C132.329 218.357 130.977 218.972 129.545 219.04C128.113 219.107 126.709 218.623 125.624 217.686C124.54 216.749 123.858 215.432 123.719 214.007C123.58 212.582 123.995 211.159 124.879 210.031C125.762 208.903 127.046 208.158 128.465 207.949C129.884 207.74 131.328 208.083 132.501 208.908C133.673 209.733 134.482 210.976 134.762 212.38C134.834 212.742 134.87 213.111 134.869 213.481Z" fill="#3F3D56"/>
<path d="M247.154 183.42C250.255 183.42 252.769 180.911 252.769 177.815C252.769 174.72 250.255 172.211 247.154 172.211C244.054 172.211 241.54 174.72 241.54 177.815C241.54 180.911 244.054 183.42 247.154 183.42Z" fill="#3F3D56"/>
<path d="M191.522 177.816C191.519 179.247 190.964 180.623 189.973 181.657C188.982 182.692 187.631 183.307 186.198 183.375C184.766 183.442 183.362 182.958 182.277 182.021C181.193 181.084 180.511 179.767 180.372 178.342C180.233 176.917 180.648 175.494 181.532 174.366C182.415 173.238 183.699 172.493 185.118 172.284C186.537 172.075 187.982 172.418 189.154 173.243C190.326 174.068 191.135 175.311 191.415 176.715C191.487 177.077 191.523 177.446 191.522 177.816Z" fill="#3F3D56"/>
<path d="M119.047 161.512C119.044 162.943 118.489 164.319 117.498 165.353C116.507 166.388 115.155 167.003 113.723 167.071C112.29 167.138 110.887 166.654 109.802 165.717C108.718 164.78 108.036 163.463 107.897 162.038C107.758 160.613 108.173 159.19 109.057 158.062C109.94 156.934 111.224 156.189 112.643 155.98C114.062 155.771 115.506 156.114 116.679 156.939C117.851 157.764 118.66 159.007 118.94 160.411C119.012 160.773 119.048 161.142 119.047 161.512Z" fill="#3F3D56"/>
<path d="M305.849 231.313C308.95 231.313 311.463 228.804 311.463 225.709C311.463 222.613 308.95 220.104 305.849 220.104C302.748 220.104 300.235 222.613 300.235 225.709C300.235 228.804 302.748 231.313 305.849 231.313Z" fill="#3F3D56"/>
<path d="M217.552 180.363C222.062 180.363 225.718 176.713 225.718 172.211C225.718 167.709 222.062 164.059 217.552 164.059C213.042 164.059 209.386 167.709 209.386 172.211C209.386 176.713 213.042 180.363 217.552 180.363Z" fill="#3F3D56"/>
<path d="M438.392 290.843L0.607705 291C0.527899 291 0.448873 290.984 0.375143 290.954C0.301412 290.923 0.234423 290.879 0.177992 290.822C0.121561 290.766 0.0767925 290.699 0.0462523 290.626C0.0157121 290.552 0 290.473 0 290.393C0 290.314 0.0157121 290.235 0.0462523 290.161C0.0767925 290.088 0.121561 290.021 0.177992 289.964C0.234423 289.908 0.301412 289.863 0.375143 289.833C0.448873 289.802 0.527899 289.787 0.607705 289.787L438.392 289.63C438.553 289.631 438.707 289.695 438.821 289.808C438.934 289.922 438.998 290.076 438.998 290.237C438.998 290.397 438.934 290.551 438.821 290.665C438.707 290.779 438.553 290.843 438.392 290.843Z" fill="#CACACA"/>
</g>
<defs>
<clipPath id="clip0_22_2270">
<rect width="439" height="291" fill="white"/>
</clipPath>
</defs>
</svg>
