<svg width="437" height="365" viewBox="0 0 437 365" fill="none" xmlns="http://www.w3.org/2000/svg">
<g clip-path="url(#clip0_13_908)">
<path d="M156.752 210.061C171.728 176.951 200.295 151.528 230.536 153.977C208.23 184.463 195.222 223.884 193.815 265.264C193.319 281.225 194.089 299.042 185.657 310.994C180.41 318.43 172.391 322.032 164.506 322.787C156.621 323.543 148.737 321.752 140.957 319.969L139.07 320.697C138.352 282.622 141.776 243.171 156.752 210.061Z" fill="#F0F0F0"/>
<path d="M230.581 154.774C208.218 168.304 189.15 190.901 177.445 218.459C174.914 224.417 172.76 230.738 171.82 237.421C170.879 244.107 171.536 250.472 173.353 256.822C175.014 262.627 177.248 268.324 177.758 274.536C178.295 281.084 176.378 287.206 172.927 292.065C168.706 298.01 163.036 301.694 157.392 305.054C151.125 308.785 144.569 312.536 140.131 319.499C139.593 320.343 138.582 319.245 139.119 318.403C146.842 306.287 160.06 304.01 169.227 294.25C173.504 289.696 176.715 283.495 176.513 276.228C176.335 269.874 174.036 263.997 172.313 258.137C170.505 251.984 169.603 245.797 170.251 239.237C170.915 232.526 172.877 226.086 175.276 220.073C180.685 206.512 188.087 194.062 196.567 183.299C206.312 170.928 217.67 160.743 230.149 153.185C230.921 152.718 231.348 154.309 230.581 154.774Z" fill="white"/>
<path d="M180.874 209.249C177.445 206.098 175.02 201.519 174.03 196.328C173.04 191.138 173.551 185.674 175.471 180.913C175.862 179.951 177.069 180.669 176.678 181.632C174.883 186.062 174.408 191.152 175.338 195.983C176.267 200.814 178.54 205.068 181.746 207.978C182.442 208.612 181.566 209.879 180.874 209.249Z" fill="white"/>
<path d="M172.202 254.018C180.793 252.44 188.595 246.851 194.052 238.365C194.592 237.524 195.602 238.622 195.063 239.462C189.371 248.279 181.243 254.075 172.3 255.692C171.448 255.845 171.355 254.17 172.202 254.018Z" fill="white"/>
<path d="M206.972 172.993C208.097 174.56 209.513 175.751 211.094 176.459C212.675 177.167 214.371 177.371 216.03 177.052C216.881 176.885 216.973 178.56 216.128 178.726C214.294 179.068 212.421 178.84 210.672 178.062C208.924 177.284 207.354 175.98 206.099 174.264C205.97 174.115 205.891 173.909 205.879 173.689C205.866 173.469 205.92 173.252 206.03 173.08C206.146 172.913 206.311 172.81 206.487 172.793C206.663 172.777 206.838 172.849 206.972 172.993Z" fill="white"/>
<path d="M290.706 258.427C290.177 258.55 289.648 258.673 289.115 258.809C282.014 260.512 275.035 262.936 268.247 266.059C267.719 266.29 267.187 266.534 266.665 266.784C250.374 274.527 235.369 286.004 222.411 300.631C217.259 306.458 212.468 312.769 208.078 319.509C202.015 328.818 196.032 339.517 188.11 345.587C187.289 346.232 186.437 346.812 185.559 347.325L139.923 323.534C139.841 323.415 139.754 323.308 139.671 323.188L137.815 322.343C138.022 321.976 138.243 321.6 138.45 321.233C138.569 321.019 138.699 320.81 138.818 320.596C138.901 320.456 138.985 320.315 139.053 320.182C139.08 320.135 139.108 320.088 139.131 320.054C139.2 319.921 139.275 319.807 139.339 319.687C140.57 317.583 141.815 315.487 143.074 313.398C143.078 313.384 143.078 313.384 143.092 313.377C152.717 297.489 163.482 282.472 175.718 269.986C176.086 269.61 176.458 269.221 176.847 268.857C182.387 263.267 188.282 258.256 194.472 253.873C197.867 251.487 201.357 249.318 204.927 247.375C214.159 242.378 223.959 239.237 233.968 238.067C253.92 235.738 274.243 241.455 289.546 257.209C289.937 257.612 290.319 258.011 290.706 258.427Z" fill="#F0F0F0"/>
<path d="M290.363 259.102C266.026 252.983 239.976 256.597 217.429 269.743C212.554 272.585 207.805 276.002 203.854 280.627C199.9 285.254 197.375 290.832 195.784 297.278C194.329 303.17 193.384 309.409 190.815 314.754C188.107 320.388 183.644 323.826 178.561 325.095C172.342 326.647 166.051 325.298 159.934 323.711C153.144 321.948 146.112 319.981 139.232 322.183C138.399 322.45 138.118 320.808 138.95 320.542C150.92 316.712 162.566 324.896 174.56 324.04C180.156 323.64 185.691 321.118 189.01 315.163C191.913 309.955 192.892 303.523 194.324 297.541C195.827 291.259 198.071 285.637 201.731 280.89C205.476 276.034 210.128 272.377 214.923 269.391C225.739 262.656 237.613 258.316 249.54 256.139C263.247 253.636 277.195 254.098 290.778 257.506C291.619 257.717 291.198 259.312 290.363 259.102Z" fill="white"/>
<path d="M224.578 264.984C223.35 259.874 223.607 254.382 225.304 249.489C227 244.596 230.025 240.619 233.839 238.271C234.612 237.799 235.232 239.286 234.458 239.759C230.903 241.938 228.086 245.642 226.513 250.203C224.941 254.763 224.718 259.88 225.884 264.63C226.136 265.662 224.829 266.01 224.578 264.984Z" fill="white"/>
<path d="M196.209 294.168C203.824 299.409 212.73 300.85 221.153 298.204C221.987 297.941 222.268 299.582 221.434 299.844C212.666 302.577 203.399 301.054 195.485 295.579C194.731 295.056 195.459 293.648 196.209 294.168Z" fill="white"/>
<path d="M262.785 255.784C262.932 257.886 263.492 259.908 264.416 261.67C265.339 263.432 266.595 264.879 268.073 265.88C268.832 266.39 268.103 267.797 267.349 267.29C265.721 266.175 264.334 264.576 263.311 262.632C262.288 260.688 261.659 258.458 261.479 256.139C261.448 255.922 261.483 255.698 261.578 255.513C261.673 255.327 261.821 255.195 261.991 255.141C262.164 255.095 262.345 255.137 262.493 255.258C262.642 255.378 262.747 255.567 262.785 255.784Z" fill="white"/>
<path d="M203.772 297.677C197.381 258.838 189.392 245.889 189.392 245.889L186.34 242.914L182.67 239.331L182.687 238.871L181.817 238.499L181.612 238.299L181.277 237.976L181.223 238.049L181.11 238.197L164.501 231.101L143.43 222.106L133.673 206.167C132.084 203.571 130.038 201.473 127.696 200.037C125.354 198.601 122.779 197.866 120.173 197.891L89.0122 198.181C84.7988 198.22 80.7496 200.238 77.6605 203.84L57.1789 227.717L25.2646 246.873L25.2108 246.805L24.8757 247.106L19.9446 250.07L20.1481 251.401L17.0961 254.169C17.0961 254.169 9.10708 266.217 2.71584 302.356C1.08999 311.552 0.289679 331.277 0.000811779 355.584C-0.013698 356.814 0.166434 358.035 0.530731 359.176C0.895027 360.318 1.43622 361.357 2.12285 362.233C2.80947 363.109 3.62782 363.805 4.53033 364.28C5.43283 364.755 6.40147 365 7.37994 365H177.84L199.116 365C200.094 364.999 201.061 364.755 201.963 364.28C202.865 363.806 203.683 363.111 204.37 362.236C205.056 361.361 205.598 360.323 205.962 359.183C206.327 358.043 206.508 356.823 206.495 355.594C206.213 329.144 205.413 307.649 203.772 297.677Z" fill="#3F3D56"/>
<path d="M225.643 33.8706C219.011 33.8706 212.651 37.1817 207.961 43.0755C203.272 48.9693 200.637 56.9629 200.637 65.298C200.637 73.6331 203.272 81.6268 207.961 87.5205C212.651 93.4143 219.011 96.7254 225.643 96.7254H411.994C418.626 96.7254 424.987 93.4143 429.676 87.5205C434.366 81.6268 437 73.6331 437 65.298C437 56.9629 434.366 48.9693 429.676 43.0755C424.987 37.1817 418.626 33.8706 411.994 33.8706H225.643Z" fill="#E5E5E5"/>
<path d="M225.643 40.231C220.353 40.231 215.28 42.8719 211.54 47.5729C207.799 52.2739 205.698 58.6499 205.698 65.2981C205.698 71.9463 207.799 78.3222 211.54 83.0232C215.28 87.7242 220.353 90.3652 225.643 90.3652H411.994C417.284 90.3652 422.357 87.7242 426.098 83.0232C429.838 78.3222 431.939 71.9463 431.939 65.2981C431.939 58.6499 429.838 52.2739 426.098 47.5729C422.357 42.8719 417.284 40.231 411.994 40.231H225.643Z" fill="white"/>
<path d="M109.486 183.178C132.033 183.178 150.31 160.206 150.31 131.87C150.31 103.533 132.033 80.5618 109.486 80.5618C86.9398 80.5618 68.6624 103.533 68.6624 131.87C68.6624 160.206 86.9398 183.178 109.486 183.178Z" fill="#9E616A"/>
<path d="M99.0425 180.665C98.8681 180.183 98.6942 179.699 98.5208 179.213C98.5876 179.215 98.6538 179.227 98.7206 179.23L99.0425 180.665Z" fill="#2F2E41"/>
<path d="M67.5271 82.895C69.5919 80.8249 72.0051 78.9202 74.645 79.0273C77.2848 79.1342 79.9618 82.1307 79.4148 85.3783C84.2637 74.5882 91.9816 66.2893 101.214 61.9384C110.446 57.5875 120.603 57.4626 129.901 61.5856C136.462 64.4949 142.896 70.3152 144.403 78.8518C144.79 81.0432 144.873 83.446 145.962 85.2254C147.335 87.469 149.961 87.9765 152.124 87.1873C152.145 87.1794 152.167 87.1714 152.188 87.1633C152.554 87.0065 152.948 86.9911 153.32 87.1191C153.693 87.247 154.026 87.5124 154.277 87.881C154.528 88.2496 154.685 88.7044 154.728 89.1865C154.772 89.6687 154.699 90.156 154.519 90.5854L152.662 94.9369C155.003 95.5925 157.434 95.5275 159.75 94.7474C160.135 94.6206 160.541 94.6465 160.914 94.8215C161.286 94.9966 161.607 95.3122 161.831 95.7251C162.055 96.138 162.172 96.6279 162.166 97.1277C162.16 97.6275 162.031 98.1127 161.797 98.5167C155.675 109.079 145.448 115.9 135.012 115.82C127.595 115.763 120.101 112.55 112.882 114.694C110.089 115.524 107.479 117.128 105.245 119.39C103.01 121.653 101.206 124.515 99.9661 127.767C98.7262 131.02 98.0814 134.58 98.079 138.187C98.0766 141.793 98.7168 145.355 99.9524 148.61C97.7347 145.561 93.4477 146.283 91.1792 149.272C88.9108 152.261 88.3235 156.723 88.5521 160.843C88.9016 167.146 90.8664 173.085 92.9377 178.865C75.5717 178.178 59.1463 162.867 53.6175 142.159C48.0655 121.365 53.8842 96.5734 67.5271 82.895Z" fill="#2F2E41"/>
<path opacity="0.2" d="M40.1812 285.951L51.6313 364.248L58.5017 365L40.1812 285.951Z" fill="black"/>
<path opacity="0.2" d="M166.307 280.046L154.857 364.191L147.986 365L166.307 280.046Z" fill="black"/>
<path d="M77.293 56.5444C75.0976 57.6965 72.8068 56.4338 71.8461 53.5422C70.8707 50.6064 71.7817 47.6261 74.0123 46.4554C76.2431 45.2847 78.4931 46.5505 79.4842 49.5337C80.4605 52.4721 79.5594 55.355 77.293 56.5444ZM73.0876 40.6767L71.342 41.5928C70.9059 41.819 70.4181 41.8311 69.9753 41.627C69.5324 41.4228 69.1666 41.0172 68.9503 40.4903L68.8639 40.2781C66.9857 36.0208 66.7706 30.8467 68.2281 24.9076C69.5783 19.5799 70.1391 15.8329 69.0113 12.4384C67.7073 8.5137 64.9229 7.28428 61.3722 9.06523C59.995 9.78796 59.5568 9.77644 58.4731 11.1276C58.2373 11.4251 57.9563 11.6599 57.6468 11.818C57.3373 11.976 57.0057 12.0542 56.6716 12.0477C56.3487 12.0429 56.0299 11.9564 55.7341 11.7935C55.4384 11.6305 55.1718 11.3943 54.9502 11.099C54.5233 10.53 54.2842 9.77858 54.281 8.99654C54.2779 8.21449 54.511 7.46008 54.9333 6.88567C56.7549 4.48909 58.952 2.59309 61.3859 1.31731C69.015 -2.68643 72.8555 3.22452 74.613 8.51427C76.332 13.6882 75.365 18.4888 73.8113 24.7061C72.5093 29.8722 72.5851 33.7003 74.0641 37.5065C74.1709 37.7943 74.2303 38.1062 74.2388 38.4235C74.2472 38.7409 74.2046 39.0571 74.1134 39.3532C74.0222 39.6493 73.8843 39.9191 73.708 40.1466C73.5317 40.374 73.3207 40.5544 73.0876 40.6767Z" fill="#4ADE80"/>
<path d="M266.806 80.2868H229.729C229.611 80.2878 229.494 80.2595 229.385 80.2036C229.276 80.1476 229.177 80.0651 229.093 79.9608C229.01 79.8565 228.943 79.7324 228.898 79.5957C228.853 79.4591 228.83 79.3125 228.83 79.1644C228.83 79.0164 228.853 78.8698 228.898 78.7331C228.943 78.5964 229.01 78.4724 229.093 78.368C229.177 78.2637 229.276 78.1812 229.385 78.1253C229.494 78.0693 229.611 78.041 229.729 78.042H266.806C267.042 78.044 267.267 78.1632 267.433 78.3734C267.599 78.5837 267.693 78.8681 267.693 79.1644C267.693 79.4608 267.599 79.7451 267.433 79.9554C267.267 80.1657 267.042 80.2848 266.806 80.2868Z" fill="#4ADE80"/>
<path d="M313.84 80.6609H276.763C276.645 80.6619 276.528 80.6336 276.419 80.5776C276.31 80.5217 276.211 80.4392 276.128 80.3348C276.044 80.2305 275.978 80.1064 275.932 79.9698C275.887 79.8331 275.864 79.6865 275.864 79.5385C275.864 79.3904 275.887 79.2438 275.932 79.1071C275.978 78.9705 276.044 78.8464 276.128 78.7421C276.211 78.6377 276.31 78.5552 276.419 78.4993C276.528 78.4433 276.645 78.415 276.763 78.416H313.84C313.958 78.415 314.075 78.4433 314.184 78.4993C314.293 78.5552 314.392 78.6377 314.475 78.7421C314.559 78.8464 314.625 78.9705 314.671 79.1071C314.716 79.2438 314.739 79.3904 314.739 79.5385C314.739 79.6865 314.716 79.8331 314.671 79.9698C314.625 80.1064 314.559 80.2305 314.475 80.3348C314.392 80.4392 314.293 80.5217 314.184 80.5776C314.075 80.6336 313.958 80.6619 313.84 80.6609Z" fill="#4ADE80"/>
<path d="M360.874 81.0349H323.797C323.562 81.0329 323.336 80.9137 323.17 80.7034C323.004 80.4932 322.91 80.2088 322.91 79.9125C322.91 79.6161 323.004 79.3318 323.17 79.1215C323.336 78.9112 323.562 78.7921 323.797 78.7901H360.874C360.992 78.7891 361.109 78.8173 361.218 78.8733C361.327 78.9293 361.426 79.0118 361.51 79.1161C361.593 79.2204 361.66 79.3445 361.705 79.4812C361.75 79.6178 361.774 79.7644 361.774 79.9125C361.774 80.0605 361.75 80.2071 361.705 80.3438C361.66 80.4805 361.593 80.6045 361.51 80.7089C361.426 80.8132 361.327 80.8957 361.218 80.9516C361.109 81.0076 360.992 81.0359 360.874 81.0349Z" fill="#4ADE80"/>
<path d="M407.909 81.4091H370.832C370.596 81.4071 370.37 81.288 370.204 81.0777C370.038 80.8674 369.945 80.5831 369.945 80.2867C369.945 79.9903 370.038 79.706 370.204 79.4957C370.37 79.2855 370.596 79.1663 370.832 79.1643H407.909C408.145 79.1663 408.37 79.2855 408.536 79.4957C408.703 79.706 408.796 79.9903 408.796 80.2867C408.796 80.5831 408.703 80.8674 408.536 81.0777C408.37 81.288 408.145 81.4071 407.909 81.4091Z" fill="#4ADE80"/>
<path d="M248.185 69.957C251.991 69.957 255.077 66.0794 255.077 61.2962C255.077 56.513 251.991 52.6355 248.185 52.6355C244.38 52.6355 241.294 56.513 241.294 61.2962C241.294 66.0794 244.38 69.957 248.185 69.957Z" fill="#4ADE80"/>
<path d="M295.504 69.957C299.31 69.957 302.395 66.0794 302.395 61.2962C302.395 56.513 299.31 52.6355 295.504 52.6355C291.698 52.6355 288.613 56.513 288.613 61.2962C288.613 66.0794 291.698 69.957 295.504 69.957Z" fill="#4ADE80"/>
<path d="M342.822 69.957C346.628 69.957 349.713 66.0794 349.713 61.2962C349.713 56.513 346.628 52.6355 342.822 52.6355C339.017 52.6355 335.931 56.513 335.931 61.2962C335.931 66.0794 339.017 69.957 342.822 69.957Z" fill="#4ADE80"/>
<path d="M390.141 69.957C393.947 69.957 397.032 66.0794 397.032 61.2962C397.032 56.513 393.947 52.6355 390.141 52.6355C386.335 52.6355 383.25 56.513 383.25 61.2962C383.25 66.0794 386.335 69.957 390.141 69.957Z" fill="#4ADE80"/>
</g>
<defs>
<clipPath id="clip0_13_908">
<rect width="437" height="365" fill="white"/>
</clipPath>
</defs>
</svg>
