<svg width="437" height="365" viewBox="0 0 437 365" fill="none" xmlns="http://www.w3.org/2000/svg">
<g clip-path="url(#clip0_13_719)">
<path d="M326.126 237.672C326.82 237.709 327.408 237.093 327.44 236.297C327.457 235.872 327.309 235.46 327.037 235.171L326.951 234.778L326.985 234.684C327.712 232.713 329.694 231.792 331.411 232.626C332.227 233.023 332.875 233.771 333.214 234.71C334.233 237.526 335.53 240.346 335.849 243.323C335.99 244.639 335.93 245.973 335.674 247.266C338.066 241.276 339.309 234.766 339.317 228.178C339.317 226.524 339.237 224.872 339.077 223.229C338.945 221.882 338.761 220.545 338.526 219.217C337.243 212.012 334.49 205.259 330.492 199.513C328.556 198.301 326.991 196.438 326.007 194.174C325.651 193.361 325.399 192.492 325.26 191.595C325.478 191.628 325.7 191.649 325.918 191.665C325.986 191.669 326.058 191.673 326.126 191.677L326.151 191.679C326.839 191.714 327.421 191.103 327.452 190.315C327.465 189.965 327.367 189.622 327.174 189.35C327.08 189.217 326.986 189.084 326.891 188.951C326.748 188.745 326.602 188.544 326.458 188.339C326.442 188.319 326.426 188.299 326.412 188.277C326.247 188.043 326.083 187.813 325.918 187.579C326.219 187.044 326.623 186.595 327.099 186.269C328.749 185.16 331.025 185.928 332.217 187.641C333.347 189.449 333.716 191.742 333.222 193.895C332.814 195.716 332.139 197.443 331.225 199.004C331.315 199.135 331.408 199.262 331.497 199.394C333.133 201.807 334.558 204.399 335.753 207.131C335.463 204.07 335.809 200.973 336.765 198.096C337.734 195.415 339.549 193.156 341.148 190.838C342.329 189.099 344.515 188.788 346.031 190.143C346.758 190.794 347.231 191.749 347.345 192.799L347.355 192.901C347.117 193.055 346.885 193.218 346.657 193.391C345.874 193.991 345.663 195.207 346.187 196.105C346.452 196.562 346.872 196.869 347.345 196.952L347.38 196.959C347.295 197.941 347.145 198.914 346.932 199.87C345.683 205.266 342.531 209.821 338.232 212.437C338.093 212.519 337.957 212.601 337.817 212.679C339.018 216.583 339.771 220.65 340.057 224.777C340.22 227.212 340.21 229.658 340.029 232.091L340.04 232.005C340.498 229.3 341.755 226.858 343.6 225.094C346.341 222.51 350.212 221.559 353.168 219.483C354.078 218.813 355.289 219.116 355.873 220.16C356.124 220.607 356.228 221.141 356.167 221.668L356.155 221.759C355.714 221.965 355.285 222.202 354.87 222.469C354.632 222.623 354.4 222.786 354.172 222.959C353.389 223.559 353.178 224.775 353.702 225.674C353.967 226.13 354.388 226.437 354.86 226.521L354.895 226.527C354.92 226.531 354.941 226.535 354.966 226.539C354.213 228.602 353.157 230.501 351.842 232.153C348.561 236.194 343.973 238.504 339.159 238.539H339.156C338.509 241.763 337.572 244.901 336.361 247.902H326.376C326.34 247.775 326.308 247.643 326.276 247.516C327.2 247.583 328.128 247.519 329.039 247.327C328.298 246.284 327.557 245.233 326.816 244.19C326.8 244.17 326.784 244.15 326.77 244.128C326.394 243.594 326.015 243.064 325.639 242.531C325.619 240.894 325.783 239.261 326.126 237.672Z" fill="#F2F2F2"/>
<path d="M295.92 132.559C295.92 138.866 298.67 145.284 304.166 145.284C309.662 145.284 317.246 140.716 315.54 130.927C314.462 124.743 311.368 121.139 305.872 121.139C300.376 121.139 295.92 126.252 295.92 132.559Z" fill="#2F2E41"/>
<path d="M318.976 222.67C317.845 221.23 317.945 219.01 319.2 217.712C319.334 217.573 319.478 217.448 319.631 217.339L317.225 205.171L322.513 207.454L323.987 218.659C324.788 220.379 324.223 222.518 322.725 223.437C321.471 224.206 319.921 223.889 318.976 222.67Z" fill="#A0616A"/>
<path d="M307.751 179.541L311.442 179.972C311.442 179.972 310.477 186.247 311.986 187.66C313.496 189.073 312.888 189.067 312.879 190.114C312.972 191.635 313.624 193.038 314.672 193.975C315.881 195.036 318.393 213.929 318.393 213.929L323.87 213.989C323.707 212.364 323.721 210.722 323.911 209.101C324.236 206.66 325.877 200.512 325.277 199.458C324.678 198.404 324.993 196.466 325.011 194.371C325.028 192.276 322.417 194.591 322.446 191.099C322.475 187.608 319.125 165.699 319.456 162.56C319.787 159.421 316.463 156.591 316.463 156.591L313.42 156.557L307.751 179.541Z" fill="#E6E6E6"/>
<path d="M268.566 150.075C268.218 151.869 269.203 153.646 270.766 154.046C270.933 154.088 271.102 154.114 271.273 154.122L274.234 165.445L277.667 160.732L274.329 150.702C274.291 148.855 272.955 147.393 271.346 147.437C269.999 147.474 268.85 148.565 268.566 150.075Z" fill="#A0616A"/>
<path d="M299.828 153.764C299.828 153.764 292.669 150.684 288.789 167.551L283.637 173.673L279.308 164.699L279.881 162.57L276.536 153.867L270.8 157.644L272.212 163.619L271.974 166.572L273.344 168.409L275.588 177.904L276.991 181.006C276.991 181.006 278.761 184.977 281.85 185.631C282.674 185.808 283.517 185.836 284.348 185.713C286.324 185.358 288.156 184.309 289.59 182.709C293.41 178.8 297.023 174.633 300.409 170.228L299.828 153.764Z" fill="#E6E6E6"/>
<path d="M309.429 182.007L309.936 184.776L310.366 194.99L293.068 192.302L291.74 180.475L293.576 177.013L309.429 182.007Z" fill="#A0616A"/>
<path d="M303.818 145.119C308.34 145.119 312.005 140.913 312.005 135.724C312.005 130.536 308.34 126.33 303.818 126.33C299.297 126.33 295.632 130.536 295.632 135.724C295.632 140.913 299.297 145.119 303.818 145.119Z" fill="#A0616A"/>
<path d="M317.535 157.692C316.184 154.035 313.388 151.342 310.016 150.45L309.985 150.443L308.364 147.939L301.787 148.696L300.585 151.525L297.466 153.654H297.46L297.454 153.661L295.821 154.778L290.403 162.056L290.397 162.063C288.789 163.295 287.698 165.236 287.383 167.425C287.301 168.049 287.274 168.682 287.303 169.313C287.481 173.182 289.589 176.626 289.879 177.086L290.588 181.662L290.73 182.603L292.006 182.815L309.979 185.765L310.478 185.85L310.626 185.871L311.144 184.336V184.322L316.155 169.278L318.404 162.566C318.41 160.89 318.114 159.231 317.535 157.692Z" fill="#E6E6E6"/>
<path d="M312.386 138.187C312.312 138.174 312.238 138.156 312.163 138.142C310.886 137.882 309.609 137.627 308.336 137.363L308.219 134.051L306.677 137.017C303.158 138.357 299.866 137.6 296.769 135.929C295.748 135.372 294.757 134.745 293.801 134.051C293.135 129.386 294.816 125.71 299.132 125.241C299.266 125.226 299.362 125.097 299.479 125.03L299.483 125.026C299.682 124.918 299.885 124.815 300.089 124.721C303.334 123.265 307.019 124.085 309.555 126.827C312.116 129.818 313.182 134.094 312.386 138.187Z" fill="#2F2E41"/>
<path d="M320.451 213.95C320.088 211.175 319.494 208.446 318.676 205.802V205.795C317.99 203.559 317.137 201.396 316.124 199.331C316.12 199.331 316.118 199.328 316.118 199.324C314.66 196.21 312.758 193.398 310.49 191.006L310.25 190.716H310.188L292.832 190.228H292.653L292.456 190.221C292.456 190.221 292.382 190.468 292.24 190.935C292.234 190.964 292.226 190.993 292.215 191.02C292.166 191.204 292.104 191.416 292.03 191.649C291.987 191.805 291.938 191.968 291.889 192.144C291.833 192.335 291.771 192.533 291.71 192.746C291.229 194.394 290.526 196.784 289.663 199.748C289.534 200.201 289.398 200.667 289.257 201.155C285.965 212.522 280.671 231.095 276.048 248.699H292.443C294.034 243.423 295.722 235.898 295.722 235.898C296.382 234.999 296.345 232.559 296.345 232.559L301.498 226.349L305.208 248.699H320.777L320.895 223.824V223.612C321.016 220.382 320.867 217.147 320.451 213.95Z" fill="#CCCCCC"/>
<path d="M309.249 124.792V124.8C309.248 125.292 309.303 125.782 309.412 126.257C309.429 126.341 309.45 126.428 309.474 126.511V126.515C309.945 128.237 311.091 129.606 312.571 130.215C312.678 130.263 312.789 130.303 312.899 130.339C313.133 130.416 313.371 130.472 313.612 130.505C313.829 130.54 314.047 130.558 314.266 130.557C314.437 130.558 314.608 130.548 314.778 130.529C315.176 130.483 315.568 130.38 315.944 130.223C316.003 130.204 316.061 130.18 316.117 130.152C316.145 130.14 316.173 130.127 316.2 130.112C318.758 128.883 319.964 125.507 318.893 122.572C318.861 122.484 318.827 122.397 318.791 122.311L318.788 122.307C318.542 121.716 318.208 121.179 317.802 120.719C316.895 119.683 316.496 117.086 315.119 117.086C315.053 117.084 314.987 117.087 314.922 117.094C313.998 117.129 312.29 119.417 311.564 119.957C311.024 120.348 310.556 120.856 310.187 121.453C309.801 122.068 309.526 122.764 309.377 123.502C309.292 123.925 309.249 124.358 309.249 124.792Z" fill="#2F2E41"/>
<path d="M315.379 122.788C316.158 123.828 317.378 124.233 318.478 124.775C322.421 126.759 325.256 130.85 326.053 135.705C326.357 137.653 326.317 139.67 326.798 141.568C327.276 143.467 328.458 145.331 330.156 145.66C331.305 145.885 332.456 145.376 333.537 144.874C334.131 144.6 334.725 144.325 335.319 144.048C334.7 142.263 334.081 140.479 333.463 138.694C334.456 140.378 335.611 141.929 336.906 143.317C339.036 142.332 341.167 141.347 343.301 140.361C338.052 140.384 338.948 134.537 337.773 128.67C337.128 125.447 331.632 123.264 330.554 120.197C328.871 115.388 324.109 113.056 319.919 114.987C318.113 115.82 316.625 117.364 315.723 119.342C314.645 119.835 314.614 121.76 315.379 122.788Z" fill="#2F2E41"/>
<path d="M293.085 191.657C290.634 192.391 288.65 194.453 287.772 197.18C287.461 197.95 287.47 198.84 287.794 199.603C288.048 200.148 288.613 200.394 289.118 200.179C289.625 199.866 290.029 199.372 290.27 198.771C290.623 198.001 290.927 197.202 291.178 196.381C291.59 195.142 292.469 193.073 291.214 192.104C290.159 191.289 288.763 191.606 287.576 191.55C286.293 191.49 284.867 190.926 284.412 189.4C283.968 187.917 285.007 186.521 286.127 185.957C287.495 185.306 289.054 185.477 290.29 186.412C291.493 187.369 292.352 188.794 292.707 190.424C292.762 190.687 292.62 190.951 292.391 191.014C292.173 191.074 291.951 190.93 291.884 190.684C291.57 189.172 290.74 187.868 289.582 187.064C288.43 186.302 287 186.366 285.904 187.229C285.329 187.64 285.062 188.439 285.25 189.185C285.539 189.848 286.083 190.316 286.718 190.448C288.072 190.823 289.487 190.337 290.836 190.833C292.092 191.202 292.892 192.613 292.678 194.08C292.538 194.961 292.311 195.82 292.001 196.641C291.737 197.485 291.43 198.311 291.079 199.112C290.544 200.274 289.578 201.531 288.303 201.19C286.851 200.802 286.506 198.856 286.817 197.425C287.66 194.122 289.955 191.573 292.858 190.713C293.088 190.65 293.318 190.813 293.373 191.076C293.425 191.326 293.299 191.58 293.085 191.657Z" fill="#CCCCCC"/>
<path d="M357.21 249.407H256.127C253.745 249.404 251.815 247.189 251.812 244.456V86.7296C251.815 83.9965 253.745 81.7816 256.127 81.7786H357.21C359.592 81.7816 361.522 83.9965 361.525 86.7296V244.456C361.522 247.189 359.592 249.404 357.21 249.407ZM256.127 83.1931C254.426 83.1954 253.047 84.7774 253.045 86.7296V244.456C253.047 246.408 254.426 247.99 256.127 247.992H357.21C358.911 247.99 360.29 246.408 360.292 244.456V86.7296C360.29 84.7774 358.911 83.1954 357.21 83.1931H256.127Z" fill="#3F3D56"/>
<path d="M373.274 24.1183H86.486C85.871 24.1032 85.3831 23.5189 85.3963 22.8132C85.409 22.1288 85.8895 21.5774 86.486 21.5627H373.274C373.889 21.5778 374.377 22.1621 374.364 22.8678C374.351 23.5523 373.871 24.1037 373.274 24.1183Z" fill="#CACACA"/>
<path d="M428.987 175.848H396.32C391.895 175.848 388.307 171.732 388.307 166.654C388.307 161.576 391.895 157.459 396.32 157.459H428.987C433.412 157.459 437 161.576 437 166.654C437 171.732 433.412 175.848 428.987 175.848Z" fill="#4ADE80"/>
<path d="M194.758 214.331C194.064 214.368 193.476 213.752 193.444 212.956C193.427 212.531 193.574 212.119 193.846 211.831L193.932 211.438L193.898 211.343C193.171 209.373 191.19 208.451 189.472 209.286C188.656 209.682 188.009 210.431 187.67 211.37C186.651 214.185 185.354 217.006 185.034 219.983C184.894 221.298 184.953 222.632 185.21 223.925C182.817 217.936 181.575 211.426 181.567 204.837C181.566 203.184 181.646 201.532 181.806 199.889C181.939 198.542 182.123 197.204 182.358 195.876C183.64 188.672 186.393 181.919 190.392 176.172C192.327 174.961 193.892 173.098 194.876 170.834C195.232 170.02 195.484 169.151 195.624 168.255C195.406 168.288 195.184 168.308 194.965 168.325C194.897 168.329 194.826 168.333 194.758 168.337L194.732 168.338C194.045 168.374 193.463 167.763 193.432 166.974C193.418 166.624 193.517 166.281 193.709 166.009C193.803 165.876 193.898 165.743 193.992 165.61C194.135 165.405 194.282 165.203 194.425 164.998C194.441 164.979 194.457 164.958 194.471 164.937C194.636 164.702 194.801 164.472 194.965 164.238C194.665 163.703 194.261 163.255 193.784 162.928C192.135 161.82 189.858 162.588 188.667 164.3C187.536 166.109 187.168 168.402 187.661 170.554C188.069 172.375 188.745 174.103 189.658 175.663C189.569 175.795 189.476 175.922 189.386 176.053C187.751 178.467 186.325 181.058 185.13 183.79C185.421 180.729 185.074 177.633 184.118 174.756C183.15 172.074 181.334 169.816 179.735 167.498C178.554 165.758 176.368 165.447 174.852 166.803C174.125 167.453 173.652 168.408 173.538 169.458L173.529 169.561C173.766 169.714 173.999 169.878 174.226 170.05C175.009 170.651 175.22 171.866 174.697 172.765C174.431 173.221 174.011 173.528 173.539 173.612L173.504 173.618C173.588 174.6 173.738 175.574 173.951 176.53C175.2 181.926 178.353 186.48 182.651 189.096C182.791 189.178 182.927 189.26 183.066 189.338C181.866 193.243 181.113 197.31 180.826 201.437C180.664 203.872 180.673 206.318 180.855 208.751L180.844 208.664C180.386 205.959 179.128 203.518 177.283 201.753C174.543 199.17 170.671 198.219 167.715 196.142C166.805 195.472 165.594 195.775 165.01 196.819C164.76 197.266 164.656 197.801 164.717 198.328L164.729 198.418C165.169 198.624 165.599 198.862 166.014 199.129C166.251 199.283 166.483 199.446 166.711 199.618C167.494 200.219 167.705 201.434 167.182 202.333C166.916 202.789 166.496 203.096 166.023 203.18L165.988 203.186C165.963 203.19 165.942 203.194 165.917 203.198C166.67 205.262 167.727 207.161 169.041 208.812C172.323 212.853 176.911 215.163 181.724 215.198H181.728C182.374 218.422 183.311 221.56 184.523 224.561H194.507C194.543 224.434 194.575 224.303 194.608 224.175C193.683 224.242 192.756 224.179 191.845 223.987C192.586 222.943 193.326 221.892 194.067 220.849C194.084 220.829 194.099 220.809 194.114 220.787C194.489 220.254 194.869 219.724 195.245 219.19C195.265 217.553 195.101 215.92 194.758 214.331Z" fill="#F2F2F2"/>
<g opacity="0.38">
<path d="M175.799 197.686C174.256 196.237 174.029 193.627 175.292 191.857C175.427 191.669 175.576 191.494 175.737 191.335L167.578 166.856L174.099 168.441L181.022 191.987C182.222 193.829 181.894 196.439 180.289 197.816C178.946 198.968 177.09 198.915 175.799 197.686Z" fill="#FFB8B8"/>
<path d="M179.156 170.876L171.833 135.908L168.684 125.737C168.681 125.733 168.678 125.728 168.678 125.723C168.165 124.061 167.092 122.706 165.701 121.96C164.308 121.195 162.706 121.108 161.257 121.719C161.133 121.769 161.012 121.825 160.893 121.889C160.64 122.022 160.395 122.173 160.16 122.342C158.801 123.325 157.857 124.91 157.552 126.72L156.998 130.058L156.763 131.48L165.411 166.166V166.18L168.419 178.26L169.812 183.834V183.841L171.427 190.327L171.464 190.461L175.341 190.164H175.347L175.932 190.115L180.37 189.775L181.011 189.726L179.156 170.876Z" fill="#2F2E41"/>
<path d="M149.429 112.493L165.738 150.343L176.056 190.59C154.319 195.454 127.043 205.86 125.08 190.936C126.29 149.329 130.101 136.058 137.969 118.02L149.429 112.493Z" fill="#2F2E41"/>
<path d="M171.236 224.652H157.842L152.412 203.596L148.591 224.383C148.578 224.475 148.572 224.56 148.56 224.652H134.285C134.747 218.145 135.592 206.828 135.992 205.222C136.559 202.945 135.992 202.945 134.858 201.643C134.605 201.353 134.519 200.193 134.544 198.574C134.612 192.993 135.937 181.938 135.937 181.938L137.508 178.6L138.051 177.44L166.046 176.308L166.286 176.301L166.804 178.89L167.439 182.08L168.555 187.674L169.584 192.137L169.639 192.364V193.686C169.464 194.147 169.384 194.648 169.405 195.15C169.405 195.603 170.293 209.707 171.236 224.652Z" fill="#2F2E41"/>
<path d="M147.517 118.106L149.439 112.829L155.388 112.948L161.591 123.017L168.102 154.437C168.102 154.437 170.44 177.389 168.102 178.601C165.763 179.813 137.447 179.168 137.447 179.168C138.758 166.773 139.735 154.164 140.765 146.631C144.168 121.736 145.775 126.975 147.517 118.106Z" fill="#4ADE80"/>
<path d="M155.388 112.948C155.388 112.948 168.202 121.449 168.704 125.886C169.205 130.323 170.883 184.632 170.883 184.632L166.351 181.271L165.113 161.478C165.976 143.89 163.868 130.78 159.582 120.953L155.388 112.948Z" fill="#2F2E41"/>
<path d="M160.984 102.06C161.756 96.5961 158.523 91.4483 153.762 90.5617C149.001 89.6751 144.515 93.3854 143.742 98.8489C142.97 104.312 146.203 109.46 150.964 110.347C155.725 111.233 160.211 107.523 160.984 102.06Z" fill="#FFB8B8"/>
<path d="M141.602 99.8591C141.992 101.89 142.696 103.824 143.679 105.57C143.94 106.165 144.331 106.674 144.812 107.046C145.315 107.417 145.978 107.322 146.386 106.82L146.598 106.622C146.182 106.327 145.81 105.957 145.497 105.525C145.183 105.085 145.073 104.498 145.202 103.949C145.359 103.395 145.869 103.081 146.358 103.24C146.87 103.471 147.181 104.319 147.716 104.188C148.148 104.08 148.239 103.426 148.239 102.911C148.223 100.22 149.356 96.3965 150.233 96.5139C151.12 96.5695 152.007 96.4332 152.85 96.1121C153.693 95.7905 154.583 95.6601 155.47 95.7283C155.533 95.7374 155.596 95.7509 155.662 95.7645C155.805 95.2533 156 94.7637 156.245 94.3063C156.217 94.8584 156.241 95.4123 156.315 95.9586C157.021 96.2923 157.75 96.5566 158.495 96.7486C159.305 96.8796 161.088 99.6605 161.17 99.376C161.312 98.8649 161.508 98.3753 161.752 97.9179C161.725 98.47 161.749 99.0239 161.823 99.5702C161.827 99.5927 161.827 99.6108 161.831 99.6334C162.225 99.0329 162.464 98.3016 162.331 98.8614C163.649 95.4394 163.137 92.9881 161.064 90.1033C160.66 89.4831 160.125 88.9907 159.51 88.6722C158.883 88.3564 158.159 88.4386 157.598 88.889C155.876 87.0773 153.433 86.4793 151.217 87.3269C149.057 88.1892 147.393 88.6948 147.063 91.2952C145.223 91.0644 143.432 92.065 142.456 93.8684C141.525 95.6711 141.22 97.8101 141.602 99.8591Z" fill="#2F2E41"/>
<path d="M117.129 195.213C116.388 193.09 117.287 190.679 119.137 189.828C119.334 189.737 119.538 189.666 119.747 189.617L122.895 163.659L127.94 168.658L124.101 193.115C124.378 195.393 122.992 197.497 121.007 197.814C119.346 198.079 117.743 197.004 117.129 195.213Z" fill="#FFB8B8"/>
<path d="M144.923 125.921L144.683 123.403C144.456 121.077 143.184 119.059 141.33 118.084C140.626 117.709 139.862 117.505 139.086 117.483H139.08C136.745 117.42 134.606 118.97 133.65 121.415L129.804 131.282L120.096 165.48L116.959 184.081L120.349 184.654L125.261 185.482L125.298 185.489L126.426 185.68L142.187 137.273L142.193 137.259L145.139 128.212L144.923 125.921Z" fill="#2F2E41"/>
</g>
<path d="M203.736 225.359H102.653C100.271 225.356 98.3414 223.141 98.3386 220.408V62.6818C98.3413 59.9486 100.271 57.7338 102.653 57.7307H203.736C206.118 57.7338 208.048 59.9486 208.051 62.6818V220.408C208.048 223.141 206.118 225.356 203.736 225.359ZM102.653 59.1453C100.952 59.1476 99.5733 60.7296 99.5713 62.6818V220.408C99.5733 222.36 100.952 223.942 102.653 223.944H203.736C205.438 223.942 206.816 222.36 206.818 220.408V62.6818C206.816 60.7296 205.438 59.1476 203.736 59.1453H102.653Z" fill="#E6E6E6"/>
<path d="M40.6798 175.848H8.01269C3.58741 175.848 0 171.732 0 166.654C0 161.576 3.58741 157.459 8.01269 157.459H40.6798C45.1051 157.459 48.6925 161.576 48.6925 166.654C48.6925 171.732 45.1051 175.848 40.6798 175.848Z" fill="#E6E6E6"/>
<path d="M56.7052 211.92H24.0381C19.6128 211.92 16.0254 207.804 16.0254 202.726C16.0254 197.647 19.6128 193.531 24.0381 193.531H56.7052C61.1305 193.531 64.7179 197.647 64.7179 202.726C64.7179 207.804 61.1305 211.92 56.7052 211.92Z" fill="#E6E6E6"/>
<path d="M73.9841 205.175L73.9663 206.589L137.094 207.636L137.111 206.221L73.9841 205.175Z" fill="#E6E6E6"/>
<path d="M139.751 210.166C138.571 210.167 137.494 209.396 136.976 208.179C136.23 206.424 136.866 204.307 138.395 203.451C139.925 202.595 141.77 203.324 142.516 205.08C143.262 206.835 142.626 208.952 141.097 209.808C140.677 210.043 140.217 210.165 139.751 210.166ZM139.745 204.507C138.723 204.508 137.896 205.459 137.897 206.631C137.897 206.953 137.961 207.27 138.084 207.559C138.533 208.611 139.639 209.047 140.556 208.532C141.473 208.017 141.852 206.747 141.404 205.695C141.094 204.968 140.45 204.507 139.745 204.507Z" fill="#E6E6E6"/>
<path d="M60.4243 167.688L60.4065 169.103L123.534 170.149L123.552 168.735L60.4243 167.688Z" fill="#E6E6E6"/>
<path d="M126.191 172.679C125.011 172.68 123.934 171.91 123.416 170.693C122.669 168.937 123.304 166.819 124.835 165.962C126.365 165.105 128.21 165.834 128.957 167.59C129.704 169.346 129.069 171.464 127.539 172.321C127.119 172.556 126.658 172.679 126.191 172.679ZM124.524 170.073C124.972 171.126 126.079 171.563 126.996 171.049C127.914 170.536 128.295 169.266 127.847 168.213C127.399 167.16 126.292 166.723 125.375 167.236C124.935 167.483 124.597 167.92 124.438 168.452C124.278 168.984 124.309 169.567 124.524 170.073Z" fill="#E6E6E6"/>
<path d="M65.3344 140.484H32.6672C28.242 140.484 24.6545 136.367 24.6545 131.289C24.6545 126.211 28.242 122.094 32.6672 122.094H65.3344C69.7597 122.094 73.3471 126.211 73.3471 131.289C73.3471 136.367 69.7597 140.484 65.3344 140.484Z" fill="#E6E6E6"/>
<path d="M85.0786 132.324L85.0608 133.738L148.188 134.785L148.206 133.37L85.0786 132.324Z" fill="#E6E6E6"/>
<path d="M150.845 137.315C149.666 137.316 148.589 136.545 148.07 135.329C147.324 133.573 147.959 131.455 149.489 130.598C151.019 129.741 152.865 130.47 153.612 132.225C154.358 133.981 153.723 136.099 152.193 136.956C151.773 137.191 151.313 137.314 150.845 137.315ZM149.178 134.708C149.626 135.761 150.733 136.198 151.65 135.685C152.568 135.171 152.949 133.901 152.501 132.848C152.054 131.795 150.947 131.358 150.029 131.872C149.589 132.118 149.252 132.556 149.092 133.087C148.933 133.619 148.964 134.203 149.178 134.708Z" fill="#E6E6E6"/>
<path d="M317.37 162.867L317.352 164.282L380.479 165.328L380.497 163.914L317.37 162.867Z" fill="#3F3D56"/>
<path d="M314.72 167.412C313.015 167.416 311.629 165.834 311.625 163.877C311.622 161.921 313.001 160.331 314.706 160.326C316.411 160.322 317.796 161.904 317.8 163.861C317.803 165.217 317.13 166.457 316.068 167.052C315.648 167.288 315.187 167.411 314.72 167.412ZM314.716 161.75C313.694 161.75 312.865 162.701 312.865 163.874C312.865 165.046 313.693 165.997 314.715 165.997C315.737 165.997 316.566 165.047 316.566 163.874C316.566 163.551 316.502 163.233 316.379 162.943C316.068 162.214 315.423 161.751 314.716 161.75Z" fill="#3F3D56"/>
<path d="M428.987 248.7H396.32C391.895 248.7 388.307 244.583 388.307 239.505C388.307 234.427 391.895 230.31 396.32 230.31H428.987C433.412 230.31 437 234.427 437 239.505C437 244.583 433.412 248.7 428.987 248.7Z" fill="#4ADE80"/>
<path d="M317.37 235.718L317.352 237.133L380.479 238.179L380.497 236.765L317.37 235.718Z" fill="#3F3D56"/>
<path d="M314.72 240.262C313.017 240.264 311.636 238.682 311.634 236.729C311.632 234.775 313.011 233.19 314.714 233.188C315.893 233.187 316.97 233.958 317.487 235.175C318.232 236.932 317.595 239.051 316.063 239.906C315.645 240.14 315.185 240.261 314.72 240.262ZM314.716 234.601C313.694 234.601 312.865 235.552 312.865 236.725C312.865 237.897 313.693 238.848 314.715 238.849C315.737 238.849 316.566 237.898 316.566 236.725C316.566 236.403 316.502 236.085 316.379 235.795C316.069 235.065 315.423 234.602 314.716 234.601Z" fill="#3F3D56"/>
<path d="M233.582 248.614C235.144 247.175 235.394 244.556 234.14 242.764C234.019 242.591 233.885 242.429 233.741 242.279L239.612 222.665L235.283 219.468L228.459 242.823C227.234 244.636 227.521 247.246 229.101 248.653C230.423 249.829 232.276 249.813 233.582 248.614Z" fill="#FFB6B6"/>
<path d="M238.592 194.494C237.556 199.527 236.008 203.924 236.218 206.035C236.425 208.141 234.183 210.164 234.895 211.828C235.607 213.497 233.417 213.676 234.009 216.361C234.603 219.052 234.989 219.627 234.488 220.07C233.983 220.511 231.314 230.782 231.314 230.782L232.879 231.441L237.447 233.353L248.18 213.094L248.148 188.228L245.483 188.13C244.843 188.405 244.134 188.736 243.427 189.134C241.268 190.33 239.084 192.097 238.592 194.494Z" fill="#4ADE80"/>
<path d="M278.117 352.275H283.699L286.354 327.57H278.116L278.117 352.275Z" fill="#FFB6B6"/>
<path d="M285.556 352.852V348.51L284.088 348.613L278.115 349.019L276.733 349.117L275.676 363.659L275.619 364.439H279.583L279.71 363.664L280.286 360.145L281.772 363.664L282.097 364.439H292.605C293.906 364.429 294.958 363.219 294.964 361.726C295.407 359.349 286.669 354.211 285.556 352.852Z" fill="#2F2E41"/>
<path d="M212.725 345.304L217.58 348.465L230.514 328.481L223.349 323.816L212.725 345.304Z" fill="#FFB6B6"/>
<path d="M218.95 350.015L220.814 346.242L219.502 345.5L214.128 342.473L212.882 341.77L206.763 352.051L205.324 354.466L206.952 355.527L208.768 356.713L211.231 353.378L210.957 358.137L219.54 363.729H219.544L220.097 364.087C221.231 364.823 222.671 364.365 223.314 363.063C224.72 361.244 219.332 351.834 218.95 350.015Z" fill="#2F2E41"/>
<path d="M250.417 231.003C242.938 236.691 235.533 291.334 237.477 290.442L219.847 328.144L228.858 335.135L261.439 275.312L272.27 301.776L276.742 342.397L287.961 341.478C285.046 295.715 277.767 247.449 271.735 228.779L250.417 231.003Z" fill="#2F2E41"/>
<path d="M244.738 235.061L244.657 235.413C252.564 240.461 274.208 234.613 274.208 234.613L270.719 221.715L275.429 193.06C275.403 188.435 272.115 184.708 268.084 184.738C267.918 184.739 267.753 184.746 267.588 184.761L261.905 179.93L253.816 180.25L248.405 187.109L245.173 188.434L242.661 189.462C242.153 189.987 241.599 190.592 241.068 191.259L245.041 218.391L246.731 226.504L244.738 235.061Z" fill="#4ADE80"/>
<path d="M257.868 178.854C263.601 178.854 268.248 173.522 268.248 166.944C268.248 160.366 263.601 155.033 257.868 155.033C252.136 155.033 247.489 160.366 247.489 166.944C247.489 173.522 252.136 178.854 257.868 178.854Z" fill="#FFB6B6"/>
<path d="M244.221 162.795C244.252 162.808 244.28 162.821 244.311 162.835C244.37 162.865 244.43 162.89 244.493 162.911C244.888 163.078 245.301 163.187 245.721 163.235C245.899 163.257 246.079 163.268 246.259 163.267C246.49 163.268 246.721 163.251 246.949 163.216C247.204 163.18 247.455 163.122 247.702 163.04C247.819 163.004 247.934 162.962 248.047 162.912C249.609 162.276 250.82 160.835 251.319 159.021V159.017C251.345 158.929 251.368 158.84 251.386 158.75C251.501 158.249 251.559 157.734 251.56 157.216V157.207C251.562 155.944 251.219 154.713 250.579 153.686C250.193 153.058 249.747 152.953 249.997 152.234C250.795 149.943 247.529 148.069 245.601 149.077C245.531 149.069 245.461 149.066 245.391 149.067C244.093 149.064 243.611 151.264 242.837 152.503L242.86 152.511C243.379 152.72 243.652 153.372 243.471 153.968C243.369 154.301 243.139 154.562 242.847 154.674C242.331 154.867 241.811 155.037 241.285 155.185C239.55 157.536 241.539 164.416 244.221 162.795Z" fill="#2F2E41"/>
<path d="M245.176 169.1C245.67 171.648 246.853 173.951 248.557 175.679C250.313 177.308 258.573 181.166 259.27 177.863C258.803 180.17 259.084 181.052 259.835 181.877C259.963 181.677 260.099 181.486 260.239 181.3C260.754 180.618 261.373 180.049 262.064 179.619C262.082 181.013 261.995 182.405 261.803 183.782C262.112 184.109 262.407 184.454 262.685 184.816C264.02 180.248 266.948 174.776 264.828 170.616C263.987 168.965 264.689 168.739 265.434 168.549C266.735 168.218 267.452 162.092 267.761 160.603C268.145 158.736 268.297 156.588 267.289 155.055C266.281 153.522 263.731 153.457 263.215 155.284L262.141 153.608C260.753 150.104 257.07 150.805 253.739 151.258C250.362 151.845 247.454 154.306 245.969 157.836C244.539 161.361 244.257 165.357 245.176 169.1Z" fill="#2F2E41"/>
<path d="M250.427 153.092C250.571 157.412 248.455 161.413 245.049 163.26C244.372 163.612 243.783 162.461 244.464 162.106C247.509 160.495 249.405 156.933 249.264 153.088C249.225 152.23 250.388 152.236 250.427 153.092Z" fill="#4ADE80"/>
<path d="M297.305 159.681C295.375 160.295 294.245 162.589 294.781 164.803C294.832 165.018 294.899 165.227 294.98 165.429L282.841 180.794L285.719 185.691L300.021 167.322C301.77 166.211 302.404 163.683 301.436 161.675C300.626 159.995 298.918 159.17 297.305 159.681Z" fill="#FFB6B6"/>
<path d="M262.798 209.526C262.798 209.526 271.408 211.3 274.091 207.141C276.774 202.982 279.708 199.646 280.242 197.613C280.775 195.58 283.53 194.74 283.449 192.886C283.367 191.031 285.443 191.86 285.821 189.121C286.199 186.382 286.043 185.676 286.658 185.498C287.274 185.319 293.255 177.092 293.255 177.092L288.505 171.952L271.677 185.707L262.798 209.526Z" fill="#4ADE80"/>
<path d="M198.042 359.252C191.285 358.329 185.253 353.955 181.625 347.35C179.296 343.015 178.094 337.867 176.932 332.888C176.593 331.44 176.243 329.941 175.873 328.497C175.016 325.268 175.958 321.766 178.25 319.652C180.467 317.52 183.591 317.15 186.14 318.717L186.412 318.883L186.888 331.175C187.594 329.529 189.144 325.808 190.372 322.094L190.475 321.782L190.71 321.977C193.179 324.012 195.414 326.396 197.363 329.072C204.33 338.791 207.219 351.535 205.262 363.918L205.203 364.283L198.042 359.252Z" fill="#F2F2F2"/>
<path d="M154.36 364.158C154.359 364.622 154.686 364.999 155.089 365H334.017C334.422 365 334.751 364.623 334.751 364.158C334.751 363.693 334.422 363.317 334.017 363.317H155.094C154.69 363.315 154.362 363.69 154.36 364.153V364.158Z" fill="#CCCCCC"/>
<path d="M100.828 12.2292C103.706 12.2292 106.04 9.49158 106.04 6.11459C106.04 2.73759 103.706 0 100.828 0C97.9491 0 95.6155 2.73759 95.6155 6.11459C95.6155 9.49158 97.9491 12.2292 100.828 12.2292Z" fill="#3F3D56"/>
<path d="M118.834 12.2292C121.713 12.2292 124.046 9.49158 124.046 6.11459C124.046 2.73759 121.713 0 118.834 0C115.955 0 113.622 2.73759 113.622 6.11459C113.622 9.49158 115.955 12.2292 118.834 12.2292Z" fill="#3F3D56"/>
<path d="M136.84 12.2292C139.719 12.2292 142.053 9.49158 142.053 6.11459C142.053 2.73759 139.719 0 136.84 0C133.962 0 131.628 2.73759 131.628 6.11459C131.628 9.49158 133.962 12.2292 136.84 12.2292Z" fill="#3F3D56"/>
<path d="M157.372 10.9474C157.212 10.9474 157.052 10.8763 156.932 10.7347L153.415 6.60902C153.18 6.33412 153.18 5.89482 153.415 5.61991L156.932 1.49462C157.17 1.21557 157.561 1.21108 157.803 1.48357C158.047 1.75675 158.051 2.20468 157.813 2.48372L154.717 6.11447L157.813 9.74555C158.051 10.0246 158.047 10.4725 157.803 10.7457C157.683 10.8804 157.528 10.9474 157.372 10.9474Z" fill="#3F3D56"/>
<path d="M163.282 10.9473C163.126 10.9473 162.971 10.8803 162.851 10.7456C162.607 10.4724 162.603 10.0249 162.841 9.74546L165.936 6.11437L162.841 2.48363C162.603 2.20458 162.607 1.75666 162.851 1.48348C163.094 1.20995 163.484 1.21514 163.723 1.49453L167.239 5.61982C167.474 5.89472 167.474 6.33402 167.239 6.60893L163.723 10.7346C163.602 10.8762 163.442 10.9473 163.282 10.9473Z" fill="#3F3D56"/>
<path d="M347.272 0.707886H340.732C339.986 0.707886 339.382 1.40102 339.382 2.25686V9.7683C339.382 10.6241 339.986 11.3173 340.732 11.3173H347.272C348.018 11.3173 348.628 10.6241 348.628 9.7683V2.25686C348.628 1.40102 348.018 0.707886 347.272 0.707886Z" fill="#3F3D56"/>
<path d="M331.246 0.707886H324.707C323.961 0.707886 323.357 1.40102 323.357 2.25686V9.7683C323.357 10.6241 323.961 11.3173 324.707 11.3173H331.246C331.992 11.3173 332.602 10.6241 332.602 9.7683V2.25686C332.602 1.40102 331.992 0.707886 331.246 0.707886Z" fill="#3F3D56"/>
<path d="M362.373 1.06152H355.833C355.087 1.06152 354.483 1.75466 354.483 2.61049V10.1219C354.483 10.9778 355.087 11.6709 355.833 11.6709H362.373C363.119 11.6709 363.729 10.9778 363.729 10.1219V2.61049C363.729 1.75466 363.119 1.06152 362.373 1.06152Z" fill="#3F3D56"/>
<path d="M263.803 3.91907H211.53C210.617 3.91907 209.884 4.76782 209.884 5.80757C209.884 6.84731 210.617 7.69602 211.53 7.69602H263.803C264.709 7.69602 265.449 6.84726 265.449 5.80757C265.449 4.76787 264.709 3.91907 263.803 3.91907Z" fill="#3F3D56"/>
</g>
<defs>
<clipPath id="clip0_13_719">
<rect width="437" height="365" fill="white"/>
</clipPath>
</defs>
</svg>
