<svg width="437" height="365" viewBox="0 0 437 365" fill="none" xmlns="http://www.w3.org/2000/svg">
<g clip-path="url(#clip0_11_457)">
<path d="M180.064 85.8902H178.08V31.4871C178.08 27.3521 177.266 23.2577 175.685 19.4375C174.104 15.6173 171.787 12.1461 168.865 9.2223C165.944 6.29845 162.476 3.97913 158.659 2.39676C154.842 0.814393 150.751 -3.58245e-05 146.62 -2.2888e-05H31.4598C27.3284 -3.58245e-05 23.2375 0.814393 19.4206 2.39676C15.6038 3.97913 12.1357 6.29846 9.21434 9.2223C6.29303 12.1462 3.97571 15.6173 2.39472 19.4375C0.813716 23.2577 -6.46258e-06 27.3521 0 31.4871V329.947C-3.87753e-06 334.082 0.813723 338.176 2.39472 341.996C3.97572 345.817 6.29304 349.288 9.21435 352.212C12.1357 355.135 15.6038 357.455 19.4206 359.037C23.2375 360.619 27.3284 361.434 31.4598 361.434H146.62C150.751 361.434 154.842 360.619 158.659 359.037C162.476 357.455 165.944 355.135 168.865 352.212C171.787 349.288 174.104 345.817 175.685 341.996C177.266 338.176 178.08 334.082 178.08 329.947V124.615H180.064V85.8902Z" fill="#E6E6E6"/>
<path d="M147.889 8.19185H132.857C133.548 9.88815 133.812 11.7286 133.625 13.551C133.439 15.3734 132.807 17.1219 131.786 18.6424C130.765 20.1629 129.386 21.4088 127.771 22.2703C126.155 23.1318 124.353 23.5824 122.523 23.5826H56.5489C54.7185 23.5824 52.9162 23.1318 51.3008 22.2703C49.6854 21.4088 48.3065 20.1629 47.2856 18.6424C46.2646 17.1219 45.6329 15.3734 45.4461 13.551C45.2594 11.7286 45.5232 9.88815 46.2145 8.19185H32.1744C29.0892 8.19184 26.0342 8.80005 23.1838 9.98175C20.3334 11.1634 17.7434 12.8955 15.5618 15.079C13.3802 17.2625 11.6497 19.8546 10.469 22.7075C9.28836 25.5604 8.68067 28.6181 8.68066 31.706V329.728C8.68066 332.816 9.28835 335.873 10.469 338.726C11.6497 341.579 13.3802 344.171 15.5618 346.355C17.7434 348.538 20.3334 350.27 23.1838 351.452C26.0341 352.634 29.0892 353.242 32.1744 353.242H147.889C150.974 353.242 154.029 352.634 156.88 351.452C159.73 350.27 162.32 348.538 164.502 346.355C166.683 344.171 168.414 341.579 169.595 338.726C170.775 335.873 171.383 332.816 171.383 329.728V31.706C171.383 28.6181 170.775 25.5604 169.595 22.7075C168.414 19.8546 166.683 17.2625 164.502 15.079C162.32 12.8955 159.73 11.1634 156.88 9.98175C154.029 8.80005 150.974 8.19184 147.889 8.19185Z" fill="white"/>
<path d="M55.9402 68.7764H49.0312C48.7883 68.7764 48.5553 68.873 48.3835 69.045C48.2117 69.2169 48.1152 69.4501 48.1152 69.6932V72.7284C48.1152 72.9716 48.2117 73.2048 48.3835 73.3767C48.5553 73.5486 48.7883 73.6452 49.0312 73.6452H50.1761V78.193H54.7953V73.6452H55.9402C56.1831 73.6452 56.4161 73.5486 56.5879 73.3767C56.7597 73.2048 56.8562 72.9716 56.8562 72.7284V69.6932C56.8562 69.4501 56.7597 69.2169 56.5879 69.045C56.4161 68.873 56.1831 68.7764 55.9402 68.7764Z" fill="#E6E6E6"/>
<path d="M62.8602 96.5545C58.6289 90.3576 56.4658 82.9794 56.6808 75.4767C56.6846 75.3036 56.6285 75.1345 56.5219 74.9981C56.4153 74.8617 56.2648 74.7665 56.096 74.7285V73.417H48.7992V74.7103H48.6987C48.5001 74.7105 48.3098 74.7897 48.1696 74.9304C48.0293 75.0712 47.9507 75.2619 47.9509 75.4606C47.951 75.4788 47.9517 75.497 47.953 75.5152C48.5279 83.5354 46.5867 90.7278 42.1296 97.0924C41.8731 97.4582 41.7421 97.8973 41.7562 98.3439L42.554 123.046C42.5732 123.597 42.8042 124.119 43.1989 124.504C43.5936 124.888 44.1215 125.105 44.6723 125.11H61.1765C61.7336 125.105 62.2669 124.883 62.6628 124.491C63.0587 124.098 63.2859 123.567 63.296 123.009L63.6035 99.0259C63.6126 98.1456 63.3533 97.2835 62.8602 96.5545Z" fill="#E6E6E6"/>
<path d="M60.2475 104.76H45.8819C45.6692 104.76 45.4591 104.806 45.2659 104.895C45.0727 104.983 44.9009 105.113 44.7625 105.275C44.624 105.436 44.5221 105.626 44.4637 105.83C44.4053 106.035 44.3918 106.25 44.4241 106.46L46.595 120.583H59.0603L61.6972 106.508C61.7371 106.295 61.7296 106.075 61.6752 105.865C61.6208 105.655 61.5209 105.46 61.3825 105.293C61.2441 105.126 61.0706 104.992 60.8745 104.9C60.6783 104.807 60.4642 104.76 60.2475 104.76Z" fill="white"/>
<path d="M132.85 142.774H125.941C125.698 142.774 125.465 142.87 125.294 143.042C125.122 143.214 125.025 143.447 125.025 143.691V146.726C125.025 146.969 125.122 147.202 125.294 147.374C125.465 147.546 125.698 147.643 125.941 147.643H127.086V152.19H131.705V147.643H132.85C133.093 147.643 133.326 147.546 133.498 147.374C133.67 147.202 133.766 146.969 133.766 146.726V143.691C133.766 143.447 133.67 143.214 133.498 143.042C133.326 142.87 133.093 142.774 132.85 142.774Z" fill="#E6E6E6"/>
<path d="M139.77 170.552C135.539 164.355 133.376 156.977 133.591 149.474C133.595 149.301 133.539 149.132 133.432 148.995C133.325 148.859 133.175 148.764 133.006 148.726V147.414H125.709V148.708H125.609C125.511 148.708 125.413 148.727 125.322 148.765C125.232 148.803 125.149 148.858 125.08 148.928C125.01 148.997 124.955 149.08 124.918 149.171C124.88 149.262 124.861 149.36 124.861 149.458C124.861 149.476 124.862 149.494 124.863 149.513C125.438 157.533 123.497 164.725 119.04 171.09C118.783 171.456 118.652 171.895 118.666 172.341L119.464 197.043C119.483 197.594 119.714 198.116 120.109 198.501C120.504 198.885 121.032 199.103 121.582 199.107H138.087C138.644 199.102 139.177 198.88 139.573 198.488C139.969 198.096 140.196 197.564 140.206 197.007L140.514 173.023C140.523 172.143 140.263 171.281 139.77 170.552Z" fill="#E6E6E6"/>
<path d="M137.158 178.757H122.792C122.579 178.757 122.369 178.803 122.176 178.892C121.983 178.981 121.811 179.11 121.673 179.272C121.534 179.434 121.432 179.623 121.374 179.828C121.315 180.032 121.302 180.247 121.334 180.458L123.505 194.581H135.971L138.607 180.505C138.647 180.292 138.64 180.073 138.585 179.863C138.531 179.653 138.431 179.457 138.293 179.29C138.154 179.124 137.981 178.989 137.785 178.897C137.588 178.805 137.374 178.757 137.158 178.757Z" fill="white"/>
<path d="M46.2271 247.384H42.9499C42.8346 247.384 42.7241 247.43 42.6426 247.512C42.5612 247.593 42.5154 247.704 42.5154 247.819V249.259C42.5154 249.374 42.5612 249.485 42.6426 249.566C42.7241 249.648 42.8346 249.694 42.9499 249.694H43.493V251.851H45.684V249.694H46.2271C46.3424 249.694 46.4529 249.648 46.5344 249.566C46.6158 249.485 46.6616 249.374 46.6616 249.259V247.819C46.6616 247.704 46.6158 247.593 46.5344 247.512C46.4529 247.43 46.3424 247.384 46.2271 247.384Z" fill="#E6E6E6"/>
<path d="M49.5096 260.561C47.5025 257.621 46.4765 254.121 46.5784 250.563C46.5803 250.48 46.5536 250.4 46.5031 250.336C46.4525 250.271 46.3811 250.226 46.3011 250.208V249.586H42.8399V250.199H42.7922C42.7455 250.199 42.6994 250.208 42.6563 250.226C42.6132 250.244 42.5741 250.27 42.5412 250.303C42.5082 250.337 42.4821 250.376 42.4643 250.419C42.4465 250.462 42.4374 250.508 42.4375 250.555C42.4375 250.564 42.4378 250.572 42.4385 250.581C42.7579 254.212 41.779 257.839 39.6762 260.816C39.5545 260.989 39.4923 261.198 39.499 261.41L39.8775 273.127C39.8866 273.388 39.9962 273.636 40.1834 273.818C40.3706 274.001 40.621 274.104 40.8822 274.106H48.711C48.9752 274.104 49.2282 273.998 49.416 273.812C49.6038 273.626 49.7116 273.374 49.7163 273.109L49.8622 261.733C49.8665 261.315 49.7435 260.907 49.5096 260.561Z" fill="#E6E6E6"/>
<path d="M48.3827 264.868H40.9128V268.606H48.3827V264.868Z" fill="white"/>
<path d="M61.4827 247.384H58.2055C58.0903 247.384 57.9797 247.43 57.8983 247.512C57.8168 247.593 57.771 247.704 57.771 247.819V249.259C57.771 249.374 57.8168 249.485 57.8983 249.566C57.9797 249.648 58.0903 249.694 58.2055 249.694H58.7486V251.851H60.9396V249.694H61.4827C61.598 249.694 61.7085 249.648 61.79 249.566C61.8715 249.485 61.9172 249.374 61.9172 249.259V247.819C61.9172 247.704 61.8715 247.593 61.79 247.512C61.7085 247.43 61.598 247.384 61.4827 247.384Z" fill="#E6E6E6"/>
<path d="M64.7652 260.561C62.7582 257.621 61.7321 254.121 61.8341 250.563C61.8359 250.48 61.8092 250.4 61.7587 250.336C61.7081 250.271 61.6368 250.226 61.5567 250.208V249.586H58.0955V250.199H58.0478C58.0011 250.199 57.955 250.208 57.9119 250.226C57.8689 250.244 57.8297 250.27 57.7968 250.303C57.7639 250.337 57.7377 250.376 57.72 250.419C57.7022 250.462 57.693 250.508 57.6931 250.555C57.6931 250.564 57.6934 250.572 57.6941 250.581C58.0136 254.212 57.0347 257.839 54.9318 260.816C54.8101 260.989 54.748 261.198 54.7546 261.41L55.1331 273.127C55.1422 273.388 55.2518 273.636 55.439 273.818C55.6262 274.001 55.8766 274.104 56.1379 274.106H63.9666C64.2308 274.104 64.4838 273.998 64.6716 273.812C64.8594 273.626 64.9672 273.374 64.972 273.109L65.1178 261.733C65.1221 261.315 64.9991 260.907 64.7652 260.561Z" fill="#E6E6E6"/>
<path d="M63.6386 264.868H56.1687V268.606H63.6386V264.868Z" fill="white"/>
<path d="M76.7383 247.384H73.4611C73.3459 247.384 73.2354 247.43 73.1539 247.512C73.0724 247.593 73.0266 247.704 73.0266 247.819V249.259C73.0266 249.374 73.0724 249.485 73.1539 249.566C73.2354 249.648 73.3459 249.694 73.4611 249.694H74.0042V251.851H76.1953V249.694H76.7383C76.8536 249.694 76.9641 249.648 77.0456 249.566C77.1271 249.485 77.1728 249.374 77.1728 249.259V247.819C77.1728 247.704 77.1271 247.593 77.0456 247.512C76.9641 247.43 76.8536 247.384 76.7383 247.384Z" fill="#E6E6E6"/>
<path d="M80.0209 260.561C78.0138 257.621 76.9877 254.121 77.0897 250.563C77.0915 250.48 77.0649 250.4 77.0143 250.336C76.9637 250.271 76.8924 250.226 76.8123 250.208V249.586H73.3511V250.199H73.3034C73.2568 250.199 73.2106 250.208 73.1675 250.226C73.1245 250.244 73.0854 250.27 73.0524 250.303C73.0195 250.337 72.9934 250.376 72.9756 250.419C72.9578 250.462 72.9487 250.508 72.9487 250.555C72.9487 250.564 72.9491 250.572 72.9497 250.581C73.2692 254.212 72.2903 257.839 70.1874 260.816C70.0657 260.989 70.0036 261.198 70.0103 261.41L70.3887 273.127C70.3978 273.388 70.5074 273.636 70.6946 273.818C70.8818 274.001 71.1322 274.104 71.3935 274.106H79.2222C79.4864 274.104 79.7394 273.998 79.9272 273.812C80.115 273.626 80.2228 273.374 80.2276 273.109L80.3734 261.733C80.3778 261.315 80.2548 260.907 80.0209 260.561Z" fill="#E6E6E6"/>
<path d="M78.8942 264.868H71.4243V268.606H78.8942V264.868Z" fill="white"/>
<path d="M120.848 218.758H113.939C113.819 218.758 113.7 218.781 113.588 218.827C113.477 218.874 113.376 218.941 113.291 219.026C113.206 219.111 113.139 219.212 113.093 219.324C113.047 219.435 113.023 219.554 113.023 219.674V222.71C113.023 222.953 113.119 223.186 113.291 223.358C113.463 223.53 113.696 223.626 113.939 223.626H115.084V228.174H119.703V223.626H120.848C121.091 223.626 121.324 223.53 121.496 223.358C121.667 223.186 121.764 222.953 121.764 222.71V219.674C121.764 219.554 121.74 219.435 121.694 219.324C121.648 219.212 121.581 219.111 121.496 219.026C121.411 218.941 121.31 218.874 121.198 218.827C121.087 218.781 120.968 218.758 120.848 218.758Z" fill="#E6E6E6"/>
<path d="M127.768 246.536C123.537 240.339 121.374 232.961 121.588 225.458C121.592 225.285 121.536 225.116 121.43 224.979C121.323 224.843 121.173 224.748 121.004 224.71V223.398H113.707V224.691H113.606C113.508 224.692 113.411 224.711 113.32 224.749C113.229 224.787 113.147 224.842 113.077 224.912C113.008 224.981 112.953 225.064 112.915 225.155C112.878 225.246 112.859 225.343 112.859 225.442C112.859 225.46 112.859 225.478 112.861 225.496C113.436 233.517 111.494 240.709 107.037 247.074C106.781 247.439 106.65 247.879 106.664 248.325L107.462 273.027C107.481 273.578 107.712 274.1 108.107 274.485C108.501 274.869 109.029 275.086 109.58 275.091H126.084C126.641 275.086 127.175 274.864 127.571 274.472C127.966 274.08 128.194 273.548 128.204 272.991L128.511 249.007C128.52 248.127 128.261 247.265 127.768 246.536Z" fill="#E6E6E6"/>
<path d="M125.155 254.741H110.79C110.577 254.741 110.367 254.787 110.174 254.876C109.98 254.965 109.809 255.094 109.67 255.256C109.532 255.417 109.43 255.607 109.371 255.812C109.313 256.016 109.3 256.231 109.332 256.442L111.503 270.564H123.968L126.605 256.489C126.645 256.276 126.637 256.057 126.583 255.847C126.529 255.637 126.429 255.441 126.29 255.274C126.152 255.107 125.978 254.973 125.782 254.881C125.586 254.789 125.372 254.741 125.155 254.741Z" fill="white"/>
<path d="M124.62 128.29H83.4355C86.3149 112.709 85.6525 93.8943 83.4355 73.6607H124.62C122.462 93.8944 121.817 112.709 124.62 128.29Z" fill="#E6E6E6"/>
<path d="M104.276 109.418C109.757 109.418 114.2 104.971 114.2 99.4853C114.2 93.9997 109.757 89.5527 104.276 89.5527C98.7949 89.5527 94.3518 93.9997 94.3518 99.4853C94.3518 104.971 98.7949 109.418 104.276 109.418Z" fill="white"/>
<path d="M86.9088 200.797H45.7246C48.604 185.216 47.9415 166.402 45.7246 146.168H86.9088C84.7508 166.402 84.106 185.216 86.9088 200.797Z" fill="#E6E6E6"/>
<path d="M66.565 181.925C72.0458 181.925 76.4889 177.478 76.4889 171.993C76.4889 166.507 72.0458 162.06 66.565 162.06C61.0842 162.06 56.6411 166.507 56.6411 171.993C56.6411 177.478 61.0842 181.925 66.565 181.925Z" fill="white"/>
<path d="M147.941 131.766H106.757C109.636 116.185 108.974 97.3707 106.757 77.1371H147.941C145.783 97.3708 145.138 116.185 147.941 131.766Z" fill="#E6E6E6"/>
<path d="M127.597 112.894C133.078 112.894 137.521 108.447 137.521 102.962C137.521 97.4761 133.078 93.0291 127.597 93.0291C122.116 93.0291 117.673 97.4761 117.673 102.962C117.673 108.447 122.116 112.894 127.597 112.894Z" fill="white"/>
<path d="M147.941 129.283H106.757C109.636 113.702 108.974 94.8876 106.757 74.6539H147.941C145.783 94.8876 145.138 113.702 147.941 129.283Z" fill="#E6E6E6"/>
<path d="M127.597 110.411C133.078 110.411 137.521 105.964 137.521 100.479C137.521 94.9929 133.078 90.546 127.597 90.546C122.116 90.546 117.673 94.9929 117.673 100.479C117.673 105.964 122.116 110.411 127.597 110.411Z" fill="white"/>
<path d="M147.941 131.766H106.757C109.636 116.185 108.974 97.3707 106.757 77.1371H147.941C145.783 97.3708 145.138 116.185 147.941 131.766Z" fill="#E6E6E6"/>
<path d="M127.597 112.894C133.078 112.894 137.521 108.447 137.521 102.962C137.521 97.4761 133.078 93.0291 127.597 93.0291C122.116 93.0291 117.673 97.4761 117.673 102.962C117.673 108.447 122.116 112.894 127.597 112.894Z" fill="white"/>
<path d="M157.368 125.31H22.4036V140.209H157.368V125.31Z" fill="#E6E6E6"/>
<path d="M157.368 199.307H22.4036V214.206H157.368V199.307Z" fill="#E6E6E6"/>
<path d="M157.368 273.305H22.4036V288.203H157.368V273.305Z" fill="#E6E6E6"/>
<path d="M392.146 333.748L358.522 309.946C369.862 298.889 380.176 283.146 390.04 265.345L423.664 289.148C410.228 304.42 398.847 319.408 392.146 333.748Z" fill="#4ADE80"/>
<path d="M392.155 308.406C397.636 308.406 402.079 303.959 402.079 298.474C402.079 292.988 397.636 288.541 392.155 288.541C386.674 288.541 382.231 292.988 382.231 298.474C382.231 303.959 386.674 308.406 392.155 308.406Z" fill="white"/>
<path d="M229.948 225.132H226.257C226.127 225.132 226.003 225.183 225.911 225.275C225.819 225.367 225.768 225.492 225.768 225.622V227.243C225.768 227.307 225.78 227.371 225.805 227.43C225.829 227.49 225.865 227.544 225.911 227.589C225.956 227.635 226.01 227.671 226.07 227.695C226.129 227.72 226.193 227.733 226.257 227.733H226.869V230.162H229.336V227.733H229.948C230.078 227.733 230.202 227.681 230.294 227.589C230.386 227.497 230.437 227.373 230.437 227.243V225.622C230.437 225.492 230.386 225.367 230.294 225.275C230.202 225.183 230.078 225.132 229.948 225.132Z" fill="#E6E6E6"/>
<path d="M233.645 239.971C231.384 236.661 230.229 232.719 230.344 228.711C230.346 228.619 230.316 228.528 230.259 228.455C230.202 228.383 230.121 228.332 230.031 228.311V227.611H226.133V228.302H226.079C226.027 228.302 225.975 228.312 225.926 228.332C225.878 228.353 225.834 228.382 225.797 228.419C225.76 228.457 225.73 228.501 225.71 228.549C225.69 228.598 225.68 228.65 225.68 228.703C225.68 228.712 225.68 228.722 225.681 228.732C226.041 232.821 224.938 236.906 222.57 240.259C222.433 240.454 222.363 240.689 222.371 240.927L222.797 254.123C222.807 254.418 222.931 254.697 223.141 254.902C223.352 255.107 223.634 255.223 223.928 255.226H232.745C233.043 255.223 233.328 255.105 233.539 254.895C233.751 254.686 233.872 254.402 233.878 254.104L234.042 241.291C234.047 240.821 233.908 240.361 233.645 239.971Z" fill="#4ADE80"/>
<path opacity="0.2" d="M229.178 225.66C229.178 225.94 229.067 226.209 228.869 226.407C228.671 226.605 228.403 226.717 228.123 226.717C227.843 226.717 227.574 226.605 227.376 226.407C227.178 226.209 227.067 225.94 227.067 225.66" fill="black"/>
<path d="M231.927 242.514H224.484V247.48H231.927V242.514Z" fill="white"/>
<path d="M346.747 276.683H339.838C339.595 276.683 339.362 276.78 339.19 276.952C339.018 277.124 338.922 277.357 338.922 277.6V280.635C338.922 280.879 339.018 281.112 339.19 281.284C339.362 281.456 339.595 281.552 339.838 281.552H340.983V286.1H345.602V281.552H346.747C346.99 281.552 347.223 281.456 347.395 281.284C347.566 281.112 347.663 280.879 347.663 280.635V277.6C347.663 277.357 347.566 277.124 347.395 276.952C347.223 276.78 346.99 276.683 346.747 276.683Z" fill="#E6E6E6"/>
<path d="M353.667 304.461C349.436 298.265 347.273 290.886 347.488 283.384C347.491 283.211 347.435 283.041 347.329 282.905C347.222 282.769 347.072 282.673 346.903 282.635V281.324H339.606V282.617H339.506C339.407 282.617 339.31 282.637 339.219 282.675C339.128 282.712 339.046 282.768 338.976 282.837C338.907 282.907 338.852 282.99 338.814 283.081C338.777 283.172 338.758 283.269 338.758 283.368C338.758 283.386 338.759 283.404 338.76 283.422C339.335 291.442 337.394 298.635 332.936 304.999C332.68 305.365 332.549 305.804 332.563 306.251L333.361 330.953C333.38 331.504 333.611 332.026 334.006 332.41C334.4 332.795 334.928 333.012 335.479 333.017H351.983C352.54 333.012 353.074 332.79 353.47 332.398C353.866 332.005 354.093 331.474 354.103 330.916L354.41 306.933C354.419 306.053 354.16 305.19 353.667 304.461Z" fill="#4ADE80"/>
<path opacity="0.2" d="M345.307 277.672C345.307 278.197 345.098 278.7 344.728 279.071C344.357 279.442 343.855 279.65 343.33 279.65C342.806 279.65 342.304 279.442 341.933 279.071C341.562 278.7 341.354 278.197 341.354 277.672" fill="black"/>
<path d="M351.054 312.667H336.689C336.476 312.667 336.266 312.713 336.073 312.802C335.88 312.89 335.708 313.02 335.569 313.182C335.431 313.343 335.329 313.533 335.271 313.737C335.212 313.942 335.199 314.157 335.231 314.367L337.402 328.49H349.867L352.504 314.415C352.544 314.202 352.536 313.982 352.482 313.772C352.428 313.562 352.328 313.367 352.189 313.2C352.051 313.033 351.878 312.899 351.681 312.807C351.485 312.714 351.271 312.667 351.054 312.667Z" fill="white"/>
<path d="M327.035 333.709H285.85C288.73 318.128 288.067 299.314 285.85 279.08H327.035C324.877 299.314 324.232 318.129 327.035 333.709Z" fill="#4ADE80"/>
<path d="M306.69 314.838C312.171 314.838 316.614 310.391 316.614 304.905C316.614 299.419 312.171 294.972 306.69 294.972C301.21 294.972 296.767 299.419 296.767 304.905C296.767 310.391 301.21 314.838 306.69 314.838Z" fill="white"/>
<path d="M158.581 161.784L167.827 160.943L173.71 146.643L163.204 140.754L158.581 161.784Z" fill="#FFB8B8"/>
<path d="M243.431 201.044C243.738 200.277 243.859 199.447 243.783 198.624C243.708 197.801 243.437 197.007 242.995 196.309C242.553 195.611 241.951 195.028 241.24 194.608C240.528 194.188 239.727 193.943 238.902 193.894L224.547 193.037L222.434 200.072L237.212 204.134C238.446 204.473 239.763 204.346 240.91 203.776C242.057 203.206 242.954 202.234 243.431 201.044Z" fill="#FFB8B8"/>
<path d="M228.017 204.252L227.859 191.052L195.973 185.96L171.409 157.763C170.131 156.296 168.365 155.342 166.438 155.078C164.511 154.815 162.554 155.259 160.93 156.329C159.946 156.976 159.117 157.832 158.5 158.836C157.883 159.84 157.494 160.967 157.361 162.138C157.227 163.309 157.352 164.495 157.727 165.612C158.101 166.73 158.717 167.751 159.529 168.604L179.794 193.565L228.017 204.252Z" fill="#575A89"/>
<path d="M151.437 352.745H159.842L180.69 258.406L202.287 287.549L214.895 350.642H222.88L221.199 282.922L193.042 210.576H165.305C157.726 224.306 151.78 238.458 158.581 253.058L151.437 352.745Z" fill="#2F2E41"/>
<path d="M209.742 358.475C209.649 358.772 209.621 359.086 209.659 359.396C209.697 359.705 209.8 360.003 209.962 360.27C210.123 360.536 210.34 360.765 210.597 360.941C210.854 361.117 211.146 361.237 211.453 361.291L232.02 364.944C232.833 365.093 233.672 364.939 234.379 364.512C235.086 364.084 235.612 363.412 235.859 362.623C236.099 361.869 236.065 361.054 235.764 360.322C235.464 359.59 234.915 358.988 234.214 358.621C229.692 356.297 225.8 352.91 222.872 348.751C220.611 350.858 218.085 350.659 215.402 349.107L212.556 349.463L209.742 358.475Z" fill="#2F2E41"/>
<path d="M147.545 358.475C147.452 358.772 147.424 359.086 147.462 359.396C147.5 359.705 147.603 360.003 147.765 360.27C147.926 360.536 148.143 360.765 148.4 360.941C148.657 361.117 148.949 361.237 149.256 361.291L169.823 364.944C170.636 365.093 171.475 364.939 172.182 364.512C172.889 364.084 173.415 363.412 173.662 362.623C173.902 361.869 173.868 361.054 173.567 360.322C173.267 359.59 172.718 358.988 172.017 358.621C167.495 356.297 163.603 352.91 160.675 348.751C158.414 350.858 155.888 350.659 153.205 349.107L150.359 349.463L147.545 358.475Z" fill="#2F2E41"/>
<path d="M173.92 151.9C180.419 151.9 185.687 146.627 185.687 140.123C185.687 133.618 180.419 128.346 173.92 128.346C167.422 128.346 162.153 133.618 162.153 140.123C162.153 146.627 167.422 151.9 173.92 151.9Z" fill="#FFB8B8"/>
<path d="M163.414 213.731L194.093 212.89L185.083 184.509C190.682 175.526 185.047 166.551 177.072 157.578L170.769 153.372L160.683 152.531C156.316 157.208 153.926 163.394 154.015 169.795C154.215 183.501 156.639 198.421 163.414 213.731Z" fill="#575A89"/>
<path d="M233.899 232.834C234.483 232.25 234.92 231.534 235.174 230.748C235.428 229.961 235.492 229.125 235.36 228.309C235.227 227.493 234.903 226.72 234.414 226.054C233.925 225.388 233.285 224.847 232.546 224.477L219.685 218.038L214.977 223.673L226.967 233.226C227.969 234.024 229.229 234.425 230.507 234.353C231.786 234.281 232.993 233.74 233.899 232.834Z" fill="#FFB8B8"/>
<path d="M218.467 229.714L223.51 217.516L196.197 200.28L184.696 164.685C184.097 162.833 182.849 161.261 181.181 160.26C179.513 159.259 177.539 158.897 175.625 159.24C174.466 159.449 173.367 159.909 172.406 160.589C171.444 161.269 170.643 162.152 170.06 163.176C169.477 164.2 169.126 165.34 169.031 166.514C168.937 167.689 169.101 168.87 169.513 169.974L178.333 200.902L218.467 229.714Z" fill="#575A89"/>
<path d="M154.589 135.496C154.589 140.079 157.562 147.175 161.313 150.218C163.836 152.264 167.171 152.178 168.457 149.376C169.776 146.502 174.323 139.746 182.325 135.496C192.993 129.831 178.542 120.138 168.457 121.616C160.879 122.726 154.589 127.83 154.589 135.496Z" fill="#2F2E41"/>
<path d="M161.733 129.187C166.375 129.187 170.138 125.42 170.138 120.774C170.138 116.128 166.375 112.362 161.733 112.362C157.091 112.362 153.328 116.128 153.328 120.774C153.328 125.42 157.091 129.187 161.733 129.187Z" fill="#2F2E41"/>
<path d="M171.399 117.83C171.398 115.709 170.596 113.667 169.155 112.113C167.713 110.559 165.737 109.607 163.624 109.45C163.833 109.434 164.042 109.418 164.255 109.418C166.484 109.418 168.622 110.304 170.198 111.882C171.774 113.459 172.66 115.599 172.66 117.83C172.66 120.061 171.774 122.201 170.198 123.779C168.622 125.356 166.484 126.242 164.255 126.242C164.042 126.242 163.833 126.226 163.624 126.211C165.737 126.053 167.713 125.101 169.155 123.547C170.596 121.993 171.398 119.951 171.399 117.83Z" fill="#2F2E41"/>
<path d="M174.131 144.329C175.175 144.329 176.022 143.199 176.022 141.805C176.022 140.411 175.175 139.282 174.131 139.282C173.086 139.282 172.24 140.411 172.24 141.805C172.24 143.199 173.086 144.329 174.131 144.329Z" fill="#FFB8B8"/>
<path d="M412.272 337.317H281.432L253.725 206.226H230.079V200.344H258.489L286.195 331.435H412.272V337.317Z" fill="#3F3D56"/>
<path d="M300.605 361.266C307.561 361.266 313.199 355.623 313.199 348.661C313.199 341.7 307.561 336.057 300.605 336.057C293.65 336.057 288.011 341.7 288.011 348.661C288.011 355.623 293.65 361.266 300.605 361.266Z" fill="#3F3D56"/>
<path d="M394.64 361.266C401.596 361.266 407.234 355.623 407.234 348.661C407.234 341.7 401.596 336.057 394.64 336.057C387.685 336.057 382.046 341.7 382.046 348.661C382.046 355.623 387.685 361.266 394.64 361.266Z" fill="#3F3D56"/>
<path d="M409.886 334.547H282.586L260.125 223.453H430.964C431.836 223.453 432.697 223.642 433.489 224.007C434.281 224.372 434.984 224.904 435.551 225.567C436.117 226.23 436.534 227.009 436.771 227.848C437.009 228.687 437.062 229.569 436.927 230.43L415.848 329.444C415.63 330.869 414.908 332.168 413.814 333.105C412.72 334.041 411.326 334.553 409.886 334.547ZM283.968 332.867H409.886C410.925 332.871 411.931 332.501 412.721 331.825C413.511 331.149 414.031 330.212 414.188 329.184L435.267 230.17C435.365 229.547 435.327 228.911 435.155 228.306C434.984 227.7 434.684 227.138 434.275 226.659C433.866 226.181 433.358 225.796 432.787 225.533C432.215 225.27 431.593 225.133 430.964 225.133H262.163L283.968 332.867Z" fill="#3F3D56"/>
<path d="M307.333 334.192L292.624 224.43L294.281 224.156L308.99 333.918L307.333 334.192Z" fill="#3F3D56"/>
<path d="M389.123 333.349L387.465 333.08L401.745 224.158L403.403 224.427L389.123 333.349Z" fill="#3F3D56"/>
<path d="M350.155 224.293H348.476V334.055H350.155V224.293Z" fill="#3F3D56"/>
<path d="M268.703 253.704L268.699 255.385L431.242 255.779L431.246 254.098L268.703 253.704Z" fill="#3F3D56"/>
<path d="M419.776 305.622L276.978 306.599L276.99 308.279L419.788 307.302L419.776 305.622Z" fill="#3F3D56"/>
<path d="M232.598 207.486C237.699 207.486 241.833 205.229 241.833 202.444C241.833 199.66 237.699 197.402 232.598 197.402C227.497 197.402 223.362 199.66 223.362 202.444C223.362 205.229 227.497 207.486 232.598 207.486Z" fill="#3F3D56"/>
</g>
<defs>
<clipPath id="clip0_11_457">
<rect width="437" height="365" fill="white"/>
</clipPath>
</defs>
</svg>
